<svg width="52" height="35" viewBox="0 0 52 35" fill="none" xmlns="http://www.w3.org/2000/svg">
<path d="M26 10.5C24.1194 10.5 22.3158 11.2375 20.986 12.5503C19.6562 13.863 18.9091 15.6435 18.9091 17.5C18.9091 19.3565 19.6562 21.137 20.986 22.4497C22.3158 23.7625 24.1194 24.5 26 24.5C27.8806 24.5 29.6842 23.7625 31.014 22.4497C32.3438 21.137 33.0909 19.3565 33.0909 17.5C33.0909 15.6435 32.3438 13.863 31.014 12.5503C29.6842 11.2375 27.8806 10.5 26 10.5ZM26 29.1667C22.8656 29.1667 19.8596 27.9375 17.6433 25.7496C15.4269 23.5617 14.1818 20.5942 14.1818 17.5C14.1818 14.4058 15.4269 11.4383 17.6433 9.25042C19.8596 7.0625 22.8656 5.83333 26 5.83333C29.1344 5.83333 32.1404 7.0625 34.3567 9.25042C36.5731 11.4383 37.8182 14.4058 37.8182 17.5C37.8182 20.5942 36.5731 23.5617 34.3567 25.7496C32.1404 27.9375 29.1344 29.1667 26 29.1667ZM26 0C14.1818 0 4.08909 7.25667 0 17.5C4.08909 27.7433 14.1818 35 26 35C37.8182 35 47.9109 27.7433 52 17.5C47.9109 7.25667 37.8182 0 26 0Z" fill="black"/>
</svg>
