<svg width="59" height="42" viewBox="0 0 59 42" fill="none" xmlns="http://www.w3.org/2000/svg">
<path d="M21.4545 26.25C28.6955 26.25 42.9091 29.6625 42.9091 36.75V42H0V36.75C0 29.6625 14.2136 26.25 21.4545 26.25ZM21.4545 21C18.6095 21 15.881 19.8938 13.8692 17.9246C11.8575 15.9555 10.7273 13.2848 10.7273 10.5C10.7273 7.71523 11.8575 5.04451 13.8692 3.07538C15.881 1.10625 18.6095 0 21.4545 0C24.2996 0 27.0281 1.10625 29.0399 3.07538C31.0516 5.04451 32.1818 7.71523 32.1818 10.5C32.1818 13.2848 31.0516 15.9555 29.0399 17.9246C27.0281 19.8938 24.2996 21 21.4545 21ZM48.2727 28.875L49.8818 27.5625C55.2455 22.575 59 19.425 59 15.4875C59 12.3375 56.3182 9.7125 53.1 9.7125C51.2227 9.7125 49.3455 10.5 48.2727 11.8125C47.2 10.5 45.3227 9.7125 43.4455 9.7125C40.2273 9.7125 37.5455 12.075 37.5455 15.4875C37.5455 19.425 41.3 22.575 46.6636 27.5625L48.2727 28.875Z" fill="black"/>
</svg>
