<svg width="48" height="42" viewBox="0 0 48 42" fill="none" xmlns="http://www.w3.org/2000/svg">
<path d="M20.2105 26.25C22.7368 26.25 25.3895 26.67 28.2947 27.405C26.2484 29.6887 25.2632 32.3662 25.2632 35.4375C25.2632 37.7738 25.8947 39.9787 27.2337 42H0V36.75C0 33.6263 2.29895 31.1062 6.9221 29.19C11.5453 27.2475 15.9916 26.25 20.2105 26.25ZM20.2105 21C17.4821 21 15.1579 19.9762 13.0863 17.9287C11.0653 15.8812 10.1053 13.4137 10.1053 10.5C10.1053 7.665 11.0653 5.25 13.0863 3.0975C15.1579 0.9975 17.4821 0 20.2105 0C23.0147 0 25.3895 0.9975 27.36 3.0975C29.3305 5.25 30.3158 7.665 30.3158 10.5C30.3158 13.4137 29.3305 15.8812 27.36 17.9287C25.3895 19.9762 23.0147 21 20.2105 21ZM39.1579 15.75H48V21H42.9474V35.4375C42.9474 37.178 42.282 38.8472 41.0975 40.0779C39.9131 41.3086 38.3066 42 36.6316 42C34.9565 42 33.3501 41.3086 32.1656 40.0779C30.9812 38.8472 30.3158 37.178 30.3158 35.4375C30.3158 33.697 30.9812 32.0278 32.1656 30.7971C33.3501 29.5664 34.9565 28.875 36.6316 28.875C37.541 28.875 38.3747 29.0588 39.1579 29.4263V15.75Z" fill="black"/>
</svg>
