<svg width="44" height="29" viewBox="0 0 44 29" fill="none" xmlns="http://www.w3.org/2000/svg">
<path d="M22.1416 0H22.3864C24.647 0.00760713 36.1015 0.0836789 39.1899 0.849463C40.1236 1.08318 40.9744 1.53873 41.6573 2.17059C42.3402 2.80245 42.8313 3.5885 43.0814 4.45017C43.3592 5.41374 43.5545 6.6892 43.6865 8.00524L43.714 8.26895L43.7745 8.92824L43.7965 9.19195C43.9753 11.5096 43.9972 13.6802 44 14.1543V14.3445C43.9972 14.8364 43.9725 17.1541 43.7745 19.5681L43.7525 19.8343L43.7277 20.098C43.5902 21.5485 43.3867 22.9888 43.0814 24.0487C42.832 24.9107 42.3412 25.6971 41.6582 26.3291C40.9752 26.9611 40.124 27.4164 39.1899 27.6494C35.9998 28.4405 23.8742 28.4963 22.1939 28.4989H21.8034C20.9536 28.4989 17.4388 28.4836 13.7536 28.367L13.2861 28.3518L13.0468 28.3416L12.5765 28.3239L12.1063 28.3061C9.05357 28.1819 6.14663 27.9816 4.8073 27.6469C3.87359 27.4141 3.02262 26.9591 2.33964 26.3276C1.65666 25.6961 1.16565 24.9102 0.915807 24.0487C0.610538 22.9913 0.407025 21.5485 0.269517 20.098L0.247515 19.8318L0.225514 19.5681C0.0897865 17.8499 0.0145755 16.1281 0 14.4054L0 14.0935C0.00550034 13.5483 0.0275017 11.6643 0.176011 9.58499L0.195262 9.32381L0.203513 9.19195L0.225514 8.92824L0.286018 8.26895L0.31352 8.00524C0.445528 6.6892 0.64079 5.41121 0.918557 4.45017C1.16798 3.58815 1.6588 2.80173 2.34181 2.16976C3.02482 1.53779 3.87601 1.08248 4.81005 0.849463C6.14938 0.519821 9.05632 0.316964 12.109 0.190178L12.5765 0.172428L13.0496 0.157214L13.2861 0.149607L13.7564 0.131857C16.3737 0.0542001 18.9922 0.0110883 21.6108 0.00253583H22.1416V0ZM17.6011 8.13963V20.3567L29.0336 14.2507L17.6011 8.13963Z" fill="black"/>
</svg>
