<svg width="43" height="36" viewBox="0 0 43 36" fill="none" xmlns="http://www.w3.org/2000/svg">
<path fill-rule="evenodd" clip-rule="evenodd" d="M12.9 5.97557C12.9 4.39075 13.5796 2.87084 14.7892 1.7502C15.9988 0.629567 17.6394 0 19.35 0H23.65C25.3606 0 27.0012 0.629567 28.2108 1.7502C29.4205 2.87084 30.1 4.39075 30.1 5.97557V7.96742H36.55C38.2606 7.96742 39.9012 8.59699 41.1108 9.71762C42.3204 10.8383 43 12.3582 43 13.943V17.9267H27.95V15.9348C27.95 15.4066 27.7235 14.8999 27.3203 14.5264C26.9171 14.1528 26.3702 13.943 25.8 13.943H17.2C16.6298 13.943 16.0829 14.1528 15.6797 14.5264C15.2765 14.8999 15.05 15.4066 15.05 15.9348V17.9267H0V13.943C0 12.3582 0.679552 10.8383 1.88916 9.71762C3.09877 8.59699 4.73935 7.96742 6.45 7.96742H12.9V5.97557ZM0 21.9104V29.8778C0 31.4626 0.679552 32.9826 1.88916 34.1032C3.09877 35.2238 4.73935 35.8534 6.45 35.8534H36.55C38.2606 35.8534 39.9012 35.2238 41.1108 34.1032C42.3204 32.9826 43 31.4626 43 29.8778V21.9104H27.95V23.9023C27.95 24.4305 27.7235 24.9372 27.3203 25.3107C26.9171 25.6843 26.3702 25.8941 25.8 25.8941H17.2C16.6298 25.8941 16.0829 25.6843 15.6797 25.3107C15.2765 24.9372 15.05 24.4305 15.05 23.9023V21.9104H0ZM17.2 7.96742H25.8V5.97557C25.8 5.44729 25.5735 4.94066 25.1703 4.56711C24.7671 4.19357 24.2202 3.98371 23.65 3.98371H19.35C18.7798 3.98371 18.2329 4.19357 17.8297 4.56711C17.4265 4.94066 17.2 5.44729 17.2 5.97557V7.96742ZM23.65 21.9104H19.35V17.9267H23.65V21.9104Z" fill="black"/>
</svg>
