<svg width="57" height="106" viewBox="0 0 57 106" fill="none" xmlns="http://www.w3.org/2000/svg">
<path d="M21.0043 105.95C18.6573 106.039 16.3103 105.593 14.0699 104.503C11.1717 103.235 8.82473 101.325 7.02891 98.6997C5.8554 96.9854 4.9486 95.0746 4.50409 93.0032C3.97068 90.646 3.88178 88.3781 4.32629 85.9316C5.23309 81.1279 7.93571 77.5029 11.9007 74.8778C14.1588 73.4314 16.5948 72.6099 19.2974 72.3421C20.8265 72.2528 22.3556 72.3421 23.8136 72.4313C24.6315 72.5206 25.3427 72.6992 26.1606 72.9671C29.5033 73.9671 32.2948 75.9493 34.4463 78.7707C35.9754 80.6815 36.9711 82.753 37.5045 85.1102C38.0379 87.4673 38.0379 89.9138 37.6823 92.271C37.1489 95.6282 35.602 98.5211 33.0772 100.968C31.7259 102.325 30.1968 103.414 28.4721 104.325C26.1428 105.396 23.618 105.95 21.0043 105.95ZM21.0932 99.6997C21.5377 99.6997 22 99.6997 22.3556 99.6104C24.7915 99.4319 26.9607 98.4318 28.7565 96.7175C31.1925 94.1818 32.2771 91.1996 31.9037 87.6638C31.7259 86.2173 31.2814 84.8601 30.4635 83.5923C28.561 80.7886 26.0539 78.8779 22.6223 78.5207C19.1907 78.1636 16.1325 78.8779 13.5188 81.2351C11.8118 82.7708 10.6383 84.6816 10.2649 86.9316C9.90933 89.1102 9.99824 91.3603 10.9939 93.4496C11.9896 95.5389 13.4298 97.0747 15.3146 98.164C17.1282 99.3426 19.0129 99.789 21.0932 99.6997Z" fill="#EAEAEA"/>
<path d="M14.7456 6.60865C13.661 7.69795 12.5408 8.96583 11.8118 10.1444C10.2827 12.8588 9.82043 15.7517 10.4605 18.7517C11.1895 22.0197 12.9853 24.359 15.8658 26.0019C17.1282 26.734 18.4795 27.1805 19.9197 27.1805C21.271 27.1805 22.7112 27.1805 24.0625 26.8233C25.9472 26.2876 27.4941 25.2876 28.8454 23.8411C31.8148 20.5911 32.6327 16.7874 31.5481 12.5195C30.9257 9.89443 29.1122 8.18011 26.5873 7.0908L26.5873 15.4302C26.5873 16.2517 26.5873 16.2517 25.7694 16.2517L21.6266 16.2517C21.0043 16.2517 21.0043 16.2517 21.0043 15.6088L21.0043 0.751393C21.0043 0.108523 21.0043 0.108528 21.6266 0.108528C23.7958 0.0192406 25.8583 0.287097 27.8497 1.10854C30.1968 2.01928 32.2593 3.37644 33.984 5.18005C35.6909 6.98365 36.8644 9.07298 37.4156 11.5195C38.0379 13.9659 38.1446 16.5017 37.6823 18.9482C37.4156 20.8411 36.8644 22.6625 36.0643 24.2876C34.9797 26.4662 33.4506 28.3591 31.5481 29.8055C29.6633 31.252 27.583 32.252 25.236 32.877C22.7112 33.5199 20.1864 33.6092 17.5727 33.0556C13.5188 32.2341 10.2649 30.0734 7.74012 26.8948C6.21101 25.0019 5.21531 22.8232 4.7708 20.4661C4.14848 17.4839 4.23739 14.5731 4.8597 11.5909C5.5887 8.05511 7.38451 5.16219 9.90933 2.71572C10.2649 2.35857 10.3538 2.35857 10.8161 2.71572C11.9007 3.89431 13.0031 5.05505 14.2477 6.16221C14.7456 6.60865 14.5678 6.43007 14.7456 6.60865Z" fill="#EAEAEA"/>
<path d="M13.5187 62.0383C13.9633 62.0383 14.4256 61.949 14.959 61.949C15.5813 61.8597 16.3103 61.8597 16.9504 61.7704C17.3949 61.6811 17.4838 61.8597 17.5727 62.2169C17.6616 63.1276 17.8394 64.0205 17.9283 64.8419C18.0172 65.5741 18.1061 66.1991 18.195 66.9312C18.195 67.0205 18.2839 67.1098 18.3728 67.2884C18.8173 65.3955 19.1907 63.574 19.5463 61.6811C24.8626 63.0383 30.0901 64.3062 35.4064 65.5741C35.2286 66.2169 35.1397 66.7527 35.0508 67.2884C34.7841 68.5563 34.4285 69.9134 34.0551 71.1813C33.9662 71.6278 33.7884 71.717 33.3261 71.6278C30.9791 70.9849 28.721 70.4492 26.3918 69.9134C24.8626 69.5563 23.3335 69.1813 21.7866 68.8241C20.8798 68.6456 19.9908 68.3777 19.1729 68.1813C18.5506 68.092 17.9105 67.9134 17.3771 68.0027C15.2079 68.1813 13.1454 68.4491 10.9762 68.7348C8.71805 69.0027 6.56662 69.1813 4.30851 69.467C3.6862 69.5563 3.57951 69.467 3.57951 68.842C3.40171 67.5741 3.31281 66.3955 3.135 65.2169C3.135 64.7705 3.135 64.4848 3.40171 64.1276C6.38881 60.4847 9.28702 56.8775 12.1674 53.1631C12.523 52.7167 12.8964 52.2524 13.3409 51.6274C13.1631 51.5381 12.9853 51.5381 12.8964 51.3595C9.55372 48.6452 6.13989 45.9308 2.79718 43.2165C2.17486 42.6808 1.53477 42.2165 0.912454 41.6808C0.73465 41.5022 0.556846 41.2343 0.467944 41.0557C0.29014 39.6986 0.201238 38.3414 0.0234345 36.9842C0.0234345 36.6271 0.0234345 36.5378 0.379042 36.4485C2.63715 36.2699 4.69968 36.0914 6.77998 35.8235C8.86029 35.6449 10.8339 35.3771 12.9142 35.0913C13.7321 35.002 13.7321 35.002 13.821 35.8235C13.9988 37.1807 14.1766 38.5378 14.4611 39.8057L14.4611 39.9843C14.6389 41.52 14.6389 41.3415 13.3765 41.4307C12.7542 41.52 12.1141 41.52 11.2962 41.6093C11.5629 41.8772 11.7407 42.0558 11.9185 42.2343C12.8253 43.0558 13.8032 43.7701 14.7989 44.5022C15.0656 44.6808 15.1545 44.9487 15.1545 45.2344C15.5102 48.038 15.9724 50.8416 16.417 53.556C16.5948 54.6453 16.6837 55.6453 16.8615 56.7168C16.9504 57.1632 16.8615 57.5382 16.5948 57.8953C15.5102 59.1632 14.5145 60.4311 13.5365 61.699C13.4298 61.8597 13.4298 61.949 13.5187 62.0383Z" fill="#EAEAEA"/>
<path d="M41.8251 39.7521C41.6473 40.6629 41.4695 41.3772 41.2917 42.1093C41.025 43.1093 40.7583 44.1094 40.4738 45.1808C40.3849 45.6272 40.2071 45.6272 39.8337 45.538C38.6602 45.2701 37.4867 45.0022 36.3132 44.6272C33.3439 43.8951 30.3568 43.0915 27.3875 42.3593C26.3918 42.0915 25.396 41.9129 24.4181 41.6272C23.7958 41.4486 23.7958 41.4486 23.8847 40.8057C24.1514 39.1807 24.5248 37.645 24.8804 36.0021C25.0582 35.2699 25.0582 35.1806 25.7872 35.4663C27.583 35.9128 29.3966 36.3771 31.1925 36.8235C33.984 37.5557 36.7755 38.1807 39.5848 38.9128C40.1182 39.0021 40.6694 39.1807 41.2028 39.3593C41.5584 39.4843 41.7362 39.6628 41.8251 39.7521Z" fill="#EAEAEA"/>
<path d="M23.2624 45.3772C24.7915 47.913 26.3206 50.4488 27.9564 53.0738C25.5205 54.5203 23.0846 56.056 20.4709 57.6096C21.3777 53.4488 22.1778 49.3773 23.0846 45.3772C23.0846 45.4665 23.1735 45.4665 23.2624 45.3772Z" fill="#EAEAEA"/>
<path d="M54.5381 78.8779L54.5381 80.2351L53.7202 80.2351C54.7159 80.9672 54.8048 81.9494 54.8048 82.3244C54.8048 83.9494 53.5424 85.3959 51.551 85.3959C49.5596 85.3959 48.2083 84.0387 48.2083 82.3244C48.2083 81.4137 48.5639 80.6994 49.2929 80.3243L48.3861 80.3243L48.3861 78.9672L54.5381 78.8779ZM51.4799 83.9494C52.5645 83.9494 53.2757 83.2173 53.2757 82.1458C53.2757 81.0565 52.4578 80.3422 51.3732 80.3422C50.2886 80.3422 49.4885 81.0744 49.4885 82.1458C49.4885 83.2173 50.3064 83.9494 51.4799 83.9494Z" fill="#EAEAEA"/>
<path d="M53.5424 67.0919C55.8005 67.0919 56.8851 68.717 56.8851 70.4492C56.8851 71.8956 56.0672 73.1635 54.627 73.5206L54.627 71.8063C55.4449 71.5385 55.5338 70.6277 55.5338 70.4492C55.5338 69.4491 54.7159 68.6456 53.8269 68.6456L53.6491 68.6456C53.9158 68.8241 54.6448 69.3777 54.6448 70.4492C54.6448 72.1635 53.2046 73.6099 51.391 73.6099C49.5063 73.6099 48.1549 72.1635 48.1549 70.4492C48.1549 70.0027 48.2438 69.092 49.2396 68.5563L48.4217 68.5563L48.4217 67.1991L53.5424 67.0919ZM51.3021 72.0742C52.2978 72.0742 53.1868 71.4492 53.1868 70.2706C53.1868 69.1813 52.3689 68.467 51.391 68.467C50.3064 68.467 49.5063 69.1991 49.5063 70.2706C49.4885 71.4492 50.3953 72.0742 51.3021 72.0742Z" fill="#EAEAEA"/>
<path d="M52.0133 60.1275C52.7423 59.949 53.2757 59.3061 53.2757 58.5025C53.2757 58.0561 53.0979 57.5025 52.6534 57.1453L52.6534 55.431C54.6448 56.2525 54.6448 58.1453 54.6448 58.5025C54.6448 60.7704 52.849 61.7704 51.4088 61.7704C49.9685 61.7704 48.066 60.6811 48.066 58.4132C48.066 56.5203 49.5063 55.2524 51.4088 55.2524L52.0311 55.2524L52.0311 60.1275L52.0133 60.1275ZM50.7509 56.7882C49.933 56.9668 49.4885 57.6989 49.4885 58.4132C49.4885 59.2347 50.0219 59.8597 50.7509 60.1275L50.7509 56.7882Z" fill="#EAEAEA"/>
<path d="M48.315 49.8952L48.315 48.538L48.8484 48.538C48.5817 48.3594 48.0305 47.8059 48.0305 46.8237C48.0305 45.3772 49.0262 44.3772 50.822 44.3772L54.4314 44.3772L54.4314 45.8237L51.1776 45.8237C49.8263 45.8237 49.4707 46.4487 49.4707 47.0916C49.4707 48.2702 50.6442 48.3594 51.1776 48.3594L54.5203 48.3594L54.5203 49.8059L48.315 49.8952Z" fill="#EAEAEA"/>
<path d="M52.4756 32.4127C53.738 32.8591 54.7337 33.9485 54.7337 35.4842C54.7337 37.8414 52.9379 38.9307 51.391 38.9307C49.9508 38.9307 48.1549 37.8414 48.1549 35.5735C48.1549 34.0377 49.0617 32.8591 50.4131 32.4127L50.4131 34.127C49.8796 34.3949 49.5952 34.9485 49.5952 35.5735C49.5952 36.7521 50.502 37.4664 51.4799 37.4664C52.5645 37.4664 53.3646 36.7342 53.3646 35.5735C53.3646 35.3056 53.2757 34.4842 52.5467 34.127L52.4756 32.4127Z" fill="#EAEAEA"/>
<path d="M48.315 21.3768L56.6184 25.0019L56.6184 26.6269L54.0047 25.4483L48.4216 27.7162L48.4216 26.0019L52.3867 24.5554L48.4216 23.109C48.315 23.0018 48.315 21.3768 48.315 21.3768Z" fill="#EAEAEA"/>
</svg>
