<svg width="52" height="52" viewBox="0 0 52 52" fill="none" xmlns="http://www.w3.org/2000/svg">
<path d="M4.21389 35.9187C4.54426 35.5501 4.91273 35.2228 5.31113 34.941C5.30088 35.0885 5.2922 35.2361 5.28511 35.3839L5.2836 35.4152L5.28288 35.4466L5.26208 36.341L5.26139 36.3705V36.4V49.4614H2.53861V40.3V40.2994C2.53824 38.6826 3.13481 37.1227 4.21389 35.9187ZM49.4614 40.3004V49.4614H46.7386V36.4C46.7386 35.9104 46.7217 35.4244 46.6883 34.9427C47.0435 35.194 47.3752 35.4816 47.6776 35.8029C48.8231 37.0202 49.461 38.6286 49.4614 40.3C49.4614 40.3001 49.4614 40.3002 49.4614 40.3004ZM26 25.9386C28.7745 25.9386 31.4354 27.0408 33.3973 29.0027C35.3592 30.9646 36.4614 33.6255 36.4614 36.4V49.4614H15.5386V36.4C15.5386 33.6255 16.6408 30.9646 18.6027 29.0027C20.5646 27.0408 23.2255 25.9386 26 25.9386ZM9.1 18.1386C10.1506 18.1386 11.1582 18.556 11.9011 19.2989C12.644 20.0418 13.0614 21.0494 13.0614 22.1C13.0614 23.1506 12.644 24.1582 11.9011 24.9011C11.1582 25.644 10.1506 26.0614 9.1 26.0614C8.04937 26.0614 7.04178 25.644 6.29887 24.9011C5.55597 24.1582 5.13861 23.1506 5.13861 22.1C5.13861 21.0494 5.55597 20.0418 6.29887 19.2989C7.04178 18.556 8.04938 18.1386 9.1 18.1386ZM42.9 18.1386C43.9506 18.1386 44.9582 18.556 45.7011 19.2989C46.444 20.0418 46.8614 21.0494 46.8614 22.1C46.8614 23.1506 46.444 24.1582 45.7011 24.9011C44.9582 25.644 43.9506 26.0614 42.9 26.0614C41.8494 26.0614 40.8418 25.644 40.0989 24.9011C39.356 24.1582 38.9386 23.1506 38.9386 22.1C38.9386 21.0494 39.356 20.0418 40.0989 19.2989C40.8418 18.556 41.8494 18.1386 42.9 18.1386ZM26 2.53861C28.085 2.53861 30.0845 3.36686 31.5588 4.84116C33.0331 6.31545 33.8614 8.31503 33.8614 10.4C33.8614 12.485 33.0331 14.4845 31.5588 15.9588C30.0845 17.4331 28.085 18.2614 26 18.2614C23.915 18.2614 21.9155 17.4331 20.4412 15.9588C18.9669 14.4845 18.1386 12.485 18.1386 10.4C18.1386 8.31503 18.9669 6.31545 20.4412 4.84116C21.9155 3.36686 23.915 2.53861 26 2.53861Z" stroke="#FFE319" stroke-width="5.07722"/>
</svg>
