<svg width="60" height="55" viewBox="0 0 60 55" fill="none" xmlns="http://www.w3.org/2000/svg">
<mask id="path-1-outside-1_336_2435" maskUnits="userSpaceOnUse" x="0" y="15.8274" width="41" height="39" fill="black">
<rect fill="white" y="15.8274" width="41" height="39"/>
<path fill-rule="evenodd" clip-rule="evenodd" d="M14.9514 17.8274H2V43.3798H6.7273V52.0002L15.4987 43.3798H39.8184V32.383H37.4548V41.0569H14.5015L9.09096 46.3743V41.0569H4.36365V20.1503H14.9514V17.8274Z"/>
</mask>
<path fill-rule="evenodd" clip-rule="evenodd" d="M14.9514 17.8274H2V43.3798H6.7273V52.0002L15.4987 43.3798H39.8184V32.383H37.4548V41.0569H14.5015L9.09096 46.3743V41.0569H4.36365V20.1503H14.9514V17.8274Z" fill="#FFE319"/>
<path d="M2 17.8274V16.8119H0.984556V17.8274H2ZM14.9514 17.8274H15.9669V16.8119H14.9514V17.8274ZM2 43.3798H0.984556V44.3953H2V43.3798ZM6.7273 43.3798H7.74275V42.3644H6.7273V43.3798ZM6.7273 52.0002H5.71186V54.4219L7.43907 52.7244L6.7273 52.0002ZM15.4987 43.3798V42.3644H15.0832L14.7869 42.6556L15.4987 43.3798ZM39.8184 43.3798V44.3953H40.8339V43.3798H39.8184ZM39.8184 32.383H40.8339V31.3676H39.8184V32.383ZM37.4548 32.383V31.3676H36.4393V32.383H37.4548ZM37.4548 41.0569V42.0723H38.4702V41.0569H37.4548ZM14.5015 41.0569V40.0414H14.0861L13.7897 40.3326L14.5015 41.0569ZM9.09096 46.3743H8.07551V48.796L9.80272 47.0985L9.09096 46.3743ZM9.09096 41.0569H10.1064V40.0414H9.09096V41.0569ZM4.36365 41.0569H3.34821V42.0723H4.36365V41.0569ZM4.36365 20.1503V19.1349H3.34821V20.1503H4.36365ZM14.9514 20.1503V21.1658H15.9669V20.1503H14.9514ZM2 18.8428H14.9514V16.8119H2V18.8428ZM3.01544 43.3798V17.8274H0.984556V43.3798H3.01544ZM6.7273 42.3644H2V44.3953H6.7273V42.3644ZM7.74275 52.0002V43.3798H5.71186V52.0002H7.74275ZM14.7869 42.6556L6.01554 51.2759L7.43907 52.7244L16.2104 44.1041L14.7869 42.6556ZM39.8184 42.3644H15.4987V44.3953H39.8184V42.3644ZM38.803 32.383V43.3798H40.8339V32.383H38.803ZM39.8184 31.3676H37.4548V33.3985H39.8184V31.3676ZM38.4702 41.0569V32.383H36.4393V41.0569H38.4702ZM14.5015 42.0723H37.4548V40.0414H14.5015V42.0723ZM9.80272 47.0985L15.2133 41.7811L13.7897 40.3326L8.37919 45.65L9.80272 47.0985ZM8.07551 41.0569V46.3743H10.1064V41.0569H8.07551ZM4.36365 42.0723H9.09096V40.0414H4.36365V42.0723ZM3.34821 20.1503V41.0569H5.3791V20.1503H3.34821ZM14.9514 19.1349H4.36365V21.1658H14.9514V19.1349ZM15.9669 20.1503V17.8274H13.936V20.1503H15.9669Z" fill="#FFE319" mask="url(#path-1-outside-1_336_2435)"/>
<mask id="path-3-outside-2_336_2435" maskUnits="userSpaceOnUse" x="19.0001" y="0" width="41" height="39" fill="black">
<rect fill="white" x="19.0001" width="41" height="39"/>
<path d="M58.0001 2H20.1817V27.5524H44.5015L53.2728 36.1728V27.5524H58.0001V2ZM22.5453 25.2295V4.32295H55.6365V25.2295H50.9092V30.5469L45.4986 25.2295H22.5453Z"/>
</mask>
<path d="M58.0001 2H20.1817V27.5524H44.5015L53.2728 36.1728V27.5524H58.0001V2ZM22.5453 25.2295V4.32295H55.6365V25.2295H50.9092V30.5469L45.4986 25.2295H22.5453Z" fill="#FFE319"/>
<path d="M58.0001 2V0.984556H59.0156V2H58.0001ZM20.1817 2H19.1662V0.984556H20.1817V2ZM20.1817 27.5524V28.5679H19.1662V27.5524H20.1817ZM44.5015 27.5524V26.537H44.9169L45.2132 26.8282L44.5015 27.5524ZM53.2728 36.1728H54.2883V38.5945L52.5611 36.897L53.2728 36.1728ZM53.2728 27.5524H52.2574V26.537H53.2728V27.5524ZM58.0001 27.5524H59.0156V28.5679H58.0001V27.5524ZM22.5453 25.2295V26.2449H21.5299V25.2295H22.5453ZM22.5453 4.32295H21.5299V3.30751H22.5453V4.32295ZM55.6365 4.32295V3.30751H56.6519V4.32295H55.6365ZM55.6365 25.2295H56.6519V26.2449H55.6365V25.2295ZM50.9092 25.2295H49.8937V24.214H50.9092V25.2295ZM50.9092 30.5469H51.9246V32.9686L50.1974 31.2711L50.9092 30.5469ZM45.4986 25.2295V24.214H45.9141L46.2104 24.5053L45.4986 25.2295ZM58.0001 3.01544H20.1817V0.984556H58.0001V3.01544ZM21.1971 2V27.5524H19.1662V2H21.1971ZM20.1817 26.537H44.5015V28.5679H20.1817V26.537ZM45.2132 26.8282L53.9846 35.4485L52.5611 36.897L43.7897 28.2767L45.2132 26.8282ZM52.2574 36.1728V27.5524H54.2883V36.1728H52.2574ZM53.2728 26.537H58.0001V28.5679H53.2728V26.537ZM56.9847 27.5524V2H59.0156V27.5524H56.9847ZM21.5299 25.2295V4.32295H23.5608V25.2295H21.5299ZM22.5453 3.30751H55.6365V5.33839H22.5453V3.30751ZM56.6519 4.32295V25.2295H54.621V4.32295H56.6519ZM55.6365 26.2449H50.9092V24.214H55.6365V26.2449ZM51.9246 25.2295V30.5469H49.8937V25.2295H51.9246ZM50.1974 31.2711L44.7869 25.9537L46.2104 24.5053L51.6209 29.8226L50.1974 31.2711ZM45.4986 26.2449H22.5453V24.214H45.4986V26.2449Z" fill="#FFE319" mask="url(#path-3-outside-2_336_2435)"/>
</svg>
