<svg width="58" height="51" viewBox="0 0 58 51" fill="none" xmlns="http://www.w3.org/2000/svg">
<path d="M29.1973 51L6.93294 28.7403L23.9553 11.7215L32.1846 19.9492L33.7629 18.3713L21.7007 6.3116L6.31293 21.6961L8.51118 23.8939L5.29835 27.1061L0 21.8088L21.8134 0L28.8027 6.98785L35.792 0L58 22.2033L29.1973 51ZM29.2536 44.6884L51.6307 22.2033L35.7357 6.3116L31.9592 10.0873L40.1885 18.3149L32.1846 26.3171L23.9553 18.0895L13.3022 28.7403L14.9368 30.3746L23.3353 21.9779L26.4917 25.1337L18.0933 33.5304L19.6715 35.1083L28.07 26.7116L31.2828 29.9238L22.8844 38.3204L24.4626 39.8983L32.861 31.5017L36.0175 34.6575L27.619 43.0541L29.2536 44.6884Z" fill="#FFE319"/>
</svg>
