<svg width="382" height="276" viewBox="0 0 382 276" fill="none" xmlns="http://www.w3.org/2000/svg">
<path d="M268.377 29.4213L268.378 29.4096L268.377 29.3979C268.339 27.5047 267.904 25.6393 267.1 23.9165C266.295 22.1938 265.138 20.6503 263.7 19.3804C262.263 18.1106 260.574 17.1411 258.739 16.5308C256.904 15.9206 254.961 15.6823 253.029 15.8304L253.028 15.8304L240.572 16.8048C236.016 15.4271 231.17 15.2564 226.53 16.3056V16.3049V16.3033V16.3018V16.3002V16.2986V16.2971V16.2955V16.2939V16.2924V16.2908V16.2892V16.2877V16.2861V16.2845V16.283V16.2814V16.2798V16.2782V16.2767V16.2751V16.2735V16.272V16.2704V16.2688V16.2673V16.2657V16.2641V16.2625V16.261V16.2594V16.2578V16.2563V16.2547V16.2531V16.2516V16.25V16.2484V16.2468V16.2453V16.2437V16.2421V16.2406V16.239V16.2374V16.2358V16.2343V16.2327V16.2311V16.2296V16.228V16.2264V16.2248V16.2233V16.2217V16.2201V16.2186V16.217V16.2154V16.2138V16.2123V16.2107V16.2091V16.2075V16.206V16.2044V16.2028V16.2013V16.1997V16.1981V16.1965V16.195V16.1934V16.1918V16.1902V16.1887V16.1871V16.1855V16.1839V16.1824V16.1808V16.1792V16.1776V16.1761V16.1745V16.1729V16.1713V16.1698V16.1682V16.1666V16.165V16.1635V16.1619V16.1603V16.1587V16.1572V16.1556V16.154V16.1524V16.1509V16.1493V16.1477V16.1461V16.1445V16.143V16.1414V16.1398V16.1382V16.1367V16.1351V16.1335V16.1319V16.1303V16.1288V16.1272V16.1256V16.124V16.1225V16.1209V16.1193V16.1177V16.1161V16.1146V16.113V16.1114V16.1098V16.1082V16.1067V16.1051V16.1035V16.1019V16.1003V16.0988V16.0972V16.0956V16.094V16.0924V16.0909V16.0893V16.0878C226.53 16.0877 226.53 16.0877 226.53 16.0877C226.53 13.0941 225.644 10.1649 223.979 7.65151C222.315 5.13822 219.942 3.14793 217.148 1.91768C214.354 0.687479 211.256 0.268966 208.225 0.71176C205.193 1.15456 202.356 2.44011 200.054 4.41583C197.751 6.39164 196.081 8.97405 195.246 11.8542C194.41 14.7344 194.445 17.7886 195.346 20.6498C196.248 23.511 197.976 26.0563 200.323 27.9815C202.511 29.7758 205.149 30.9607 207.959 31.4185C206.312 35.139 205.574 39.1849 205.807 43.2369C206.052 47.4945 207.362 51.6285 209.622 55.2786C211.882 58.9285 215.022 61.9834 218.77 64.178C222.392 66.2996 226.475 67.5551 230.686 67.8457V68.4334L231.368 68.0558L231.672 67.8876H231.674H231.676H231.678H231.68H231.682H231.684H231.686H231.688H231.69H231.692H231.694H231.696H231.698H231.7H231.702H231.704H231.706H231.708H231.71H231.712H231.714H231.716H231.718H231.72H231.722H231.724H231.726H231.728H231.73H231.732H231.734H231.736H231.738H231.74H231.742H231.744H231.746H231.748H231.75H231.752H231.754H231.756H231.758H231.76H231.762H231.764H231.766H231.768H231.77H231.772H231.774H231.776H231.778H231.78H231.782H231.784H231.786H231.788H231.79H231.792H231.794H231.796H231.798H231.8H231.802H231.804H231.806H231.808H231.81H231.812H231.814H231.816H231.818H231.82H231.822H231.824H231.826H231.828H231.83H231.832H231.834H231.836H231.838H231.84H231.842H231.844H231.846H231.848H231.85H231.852H231.854H231.856H231.858H231.86H231.862H231.864H231.866H231.868H231.87H231.872H231.874H231.876H231.878H231.88H231.882H231.884H231.886H231.888H231.89H231.892H231.894H231.896H231.898H231.9H231.902H231.904H231.906H231.908H231.91H231.912H231.914H231.916H231.918H231.92H231.922H231.924H231.926H231.928H231.93H231.932H231.934H231.936H231.938H231.94H231.942H231.943H231.945H231.947H231.949H231.951H231.953H231.955H231.957H231.959H231.961H231.963H231.965H231.967H231.969H231.971H231.973H231.975H231.977H231.979H231.981H231.983H231.985H231.987H231.989H231.991H231.993H231.995H231.997H231.999H232.001H232.003H232.005H232.007H232.009H232.011H232.013H232.015H232.017H232.019H232.021H232.023H232.025H232.027H232.029H232.031H232.033H232.035H232.037H232.039H232.041H232.043H232.045H232.047H232.049H232.051H232.053H232.055H232.057H232.059H232.061H232.062H232.064H232.066H232.068H232.07H232.072H232.074H232.076H232.078H232.08H232.082H232.084H232.086H232.088H232.09H232.092H232.094H232.096H232.098H232.1H232.102H232.104H232.106H232.108H232.11H232.112H232.114H232.116H232.118H232.12H232.122H232.124H232.126H232.128H232.13H232.132H232.134H232.135H232.137H232.139H232.141H232.143H232.145H232.147H232.149H232.151H232.153H232.155H232.157H232.159H232.161H232.163H232.165H232.167H232.169H232.171H232.173H232.175H232.177H232.179H232.181H232.183H232.185H232.187H232.189H232.19H232.192H232.194H232.196H232.198H232.2H232.202H232.204H232.206H232.208H232.21H232.212H232.214H232.216H232.218H232.22H232.222H232.224H232.226H232.228H232.23H232.232H232.234H232.235H232.237H232.239H232.241H232.243H232.245H232.247H232.249H232.251H232.253H232.255H232.257H232.259H232.261H232.263H232.265H232.267H232.269H232.271H232.273H232.274H232.276H232.278H232.28H232.282H232.284H232.286H232.288H232.29H232.292H232.294H232.296H232.298H232.3H232.302H232.304H232.306H232.308H232.309H232.311H232.313H232.315H232.317H232.319H232.321H232.323H232.325H232.327H232.329H232.331H232.333H232.335H232.337H232.339H232.34H232.342H232.344H232.346H232.348H232.35H232.352H232.354H232.356H232.358H232.36H232.362H232.364H232.366H232.368H232.369H232.371H232.373H232.375H232.377H232.379H232.381H232.383H232.385H232.387H232.389H232.391H232.393H232.395H232.396H232.398H232.4H232.402H232.404H232.406H232.408H232.41H232.412H232.414H232.416H232.418H232.42H232.421H232.423H232.425H232.427H232.429H232.431H232.433H232.435H232.437H232.439H232.441H232.443H232.444H232.446H232.448H232.45H232.452H232.454H232.456H232.458H232.46H232.462H232.464H232.465H232.467H232.469H232.471H232.473H232.475H232.477H232.479H232.481H232.483H232.485H232.486H232.488H232.49H232.492H232.494H232.496H232.498H232.5H232.502H232.504H232.505H232.507H232.509H232.511H232.513H232.515H232.517H232.519H232.521H232.523H232.524H232.526H232.528H232.53H232.532H232.534H232.536H232.538H232.54H232.542H232.543H232.545H232.547H232.549H232.551H232.553H232.555H232.557H232.559H232.56C237.163 67.8884 241.689 66.7343 245.702 64.5358C249.715 62.3373 253.081 59.1681 255.474 55.3324C257.868 51.4966 259.207 47.1239 259.363 42.6357C259.509 38.4382 258.615 34.273 256.763 30.4912C257.19 30.5238 257.62 30.5265 258.048 30.4989L258.051 30.4987L259.088 30.4251C259.088 30.4251 259.088 30.4251 259.088 30.4251C260.685 30.3127 262.281 30.6455 263.69 31.3838C265.062 32.1127 266.216 33.1737 267.042 34.4629L267.599 35.3333L267.873 34.3365C268.211 33.103 268.369 31.8291 268.342 30.5525L268.377 29.4213Z" fill="black" stroke="#6D37FF" stroke-width="0.919642"/>
<path d="M293.598 140.563H294.259L294.029 139.944L278.525 98.17C278.525 98.17 278.525 98.17 278.525 98.1699C273.503 84.6314 262.264 76.133 250.071 76.8492L214.405 78.9187C202.485 78.9248 191.644 87.0989 186.182 99.9771C186.182 99.9782 186.182 99.9793 186.181 99.9804L168.505 139.917L168.219 140.563H168.926H293.598Z" fill="#000F25" stroke="#6D37FF" stroke-width="0.919642"/>
<path d="M230.717 46.8036L230.741 46.8912C230.826 47.8018 231.077 48.69 231.483 49.5138L232.343 49.2072L231.608 46.0233L230.7 46.1267V46.1278V46.1289V46.13V46.1311V46.1322V46.1333V46.1344V46.1354V46.1365V46.1376V46.1387V46.1398V46.1409V46.142V46.1431V46.1442V46.1453V46.1464V46.1474V46.1485V46.1496V46.1507V46.1518V46.1529V46.154V46.1551V46.1562V46.1573V46.1583V46.1594V46.1605V46.1616V46.1627V46.1638V46.1649V46.166V46.1671V46.1681V46.1692V46.1703V46.1714V46.1725V46.1736V46.1747V46.1758V46.1768V46.1779V46.179V46.1801V46.1812V46.1823V46.1834V46.1845V46.1855V46.1866V46.1877V46.1888V46.1899V46.191V46.1921V46.1931V46.1942V46.1953V46.1964V46.1975V46.1986V46.1997V46.2008V46.2018V46.2029V46.204V46.2051V46.2062V46.2073V46.2083V46.2094V46.2105V46.2116V46.2127V46.2138V46.2149V46.2159V46.217V46.2181V46.2192V46.2203V46.2214V46.2224V46.2235V46.2246V46.2257V46.2268V46.2279V46.229V46.23V46.2311V46.2322V46.2333V46.2344V46.2355V46.2365V46.2376V46.2387V46.2398V46.2409V46.242V46.243V46.2441V46.2452V46.2463V46.2474V46.2484V46.2495V46.2506V46.2517V46.2528V46.2539V46.2549V46.256V46.2571V46.2582V46.2593V46.2604V46.2614V46.2625V46.2636V46.2647V46.2658V46.2668V46.2679V46.269V46.2701V46.2712V46.2722V46.2733V46.2744V46.2755V46.2766V46.2777V46.2787V46.2798V46.2809V46.282V46.2831V46.2841V46.2852V46.2863V46.2874V46.2885V46.2895V46.2906V46.2917V46.2928V46.2939V46.2949V46.296V46.2971V46.2982V46.2993V46.3003V46.3014V46.3025V46.3036V46.3047V46.3057V46.3068V46.3079V46.309V46.3101V46.3111V46.3122V46.3133V46.3144V46.3155V46.3165V46.3176V46.3187V46.3198V46.3209V46.3219V46.323V46.3241V46.3252V46.3263V46.3273V46.3284V46.3295V46.3306V46.3316V46.3327V46.3338V46.3349V46.336V46.337V46.3381V46.3392V46.3403V46.3414V46.3424V46.3435V46.3446V46.3457V46.3468V46.3478V46.3489V46.35V46.3511V46.3521V46.3532V46.3543V46.3554V46.3565V46.3575V46.3586V46.3597V46.3608V46.3618V46.3629V46.364V46.3651V46.3662V46.3672V46.3683V46.3694V46.3705V46.3716V46.3726V46.3737V46.3748V46.3759V46.3769V46.378V46.3791V46.3802V46.3813V46.3823V46.3834V46.3845V46.3856V46.3866V46.3877V46.3888V46.3899V46.391V46.392V46.3931V46.3942V46.3953V46.3963V46.3974V46.3985V46.3996V46.4007V46.4017V46.4028V46.4039V46.405V46.406V46.4071V46.4082V46.4093V46.4104V46.4114V46.4125V46.4136V46.4147V46.4158V46.4168V46.4179V46.419V46.4201V46.4211V46.4222V46.4233V46.4244V46.4255V46.4265V46.4276V46.4287V46.4298V46.4308V46.4319V46.433V46.4341V46.4352V46.4362V46.4373V46.4384V46.4395V46.4405V46.4416V46.4427V46.4438V46.4449V46.4459V46.447V46.4481V46.4492V46.4503V46.4513V46.4524V46.4535V46.4546V46.4556V46.4567V46.4578V46.4589V46.46V46.461V46.4621V46.4632V46.4643V46.4654V46.4664V46.4675V46.4686V46.4697V46.4707V46.4718V46.4729V46.474V46.4751V46.4761V46.4772V46.4783V46.4794V46.4805V46.4815V46.4826V46.4837V46.4848V46.4858V46.4869V46.488V46.4891V46.4902V46.4912V46.4923V46.4934V46.4945V46.4956V46.4966V46.4977V46.4988V46.4999V46.501V46.502V46.5031V46.5042V46.5053V46.5064V46.5074V46.5085V46.5096V46.5107V46.5118V46.5128V46.5139V46.515V46.5161V46.5172V46.5182V46.5193V46.5204V46.5215V46.5226V46.5236V46.5247V46.5258V46.5269V46.528V46.5291V46.5301V46.5312V46.5323V46.5334V46.5345V46.5355V46.5366V46.5377V46.5388V46.5399V46.5409V46.542V46.5431V46.5442V46.5453V46.5464V46.5474V46.5485V46.5496V46.5507V46.5518V46.5528V46.5539V46.555V46.5561V46.5572V46.5583V46.5593V46.5604V46.5615V46.5626V46.5637V46.5648V46.5658V46.5669V46.568V46.5691V46.5702V46.5712V46.5723V46.5734V46.5745V46.5756V46.5767V46.5777V46.5788V46.5799V46.581V46.5821V46.5832V46.5843V46.5853V46.5864V46.5875V46.5886V46.5897V46.5908V46.5918V46.5929V46.594V46.5951V46.5962V46.5973V46.5984V46.5994V46.6005V46.6016V46.6027V46.6038V46.6049V46.6059V46.607V46.6081V46.6092V46.6103V46.6114V46.6125V46.6136V46.6146V46.6157V46.6168V46.6179V46.619V46.6201V46.6212V46.6222V46.6233V46.6244V46.6255V46.6266V46.6277V46.6288V46.6299V46.6309V46.632V46.6331V46.6342V46.6353V46.6364V46.6375V46.6386V46.6396V46.6407V46.6418V46.6429V46.644V46.6451V46.6462V46.6473V46.6484V46.6494V46.6505V46.6516V46.6527V46.6538V46.6549V46.656V46.6571V46.6582V46.6593V46.6603V46.6614V46.6625V46.6636V46.6647V46.6658V46.6669V46.668V46.6691V46.6702V46.6713V46.6723V46.6734V46.6745V46.6756V46.6767V46.6778V46.6789V46.68V46.6811V46.7434L230.717 46.8036Z" stroke="#6D37FF" stroke-width="0.919642"/>
<path d="M230.488 45.0495L230.488 45.0495L230.488 45.0522C230.486 45.1911 230.502 45.3296 230.536 45.4645L230.58 45.6534L231.488 45.5474V44.0757L230.573 44.0061C230.519 44.3578 230.493 44.7173 230.488 45.0495Z" fill="#101010" stroke="#6D37FF" stroke-width="0.919642"/>
<path d="M265.331 41.4947L265.332 41.4987C265.343 41.6475 265.398 41.7911 265.491 41.9131C265.491 41.9132 265.491 41.9134 265.491 41.9136L268.188 45.4287C268.188 45.4287 268.188 45.4288 268.188 45.4288C268.558 45.9088 268.815 46.4638 268.939 47.0538C269.063 47.6439 269.05 48.2535 268.903 48.8382C268.755 49.4229 268.476 49.9675 268.086 50.4326C267.697 50.8973 267.208 51.2711 266.654 51.5277C266.511 51.5943 266.392 51.697 266.308 51.8232C266.224 51.9493 266.178 52.0945 266.174 52.2427L266.174 52.2433L265.952 59.6022L265.952 59.6106L265.951 59.619C265.95 59.6352 265.95 59.6515 265.951 59.6678C266.177 62.4461 265.284 64.7088 263.57 66.1844C261.864 67.6541 259.403 68.2909 256.586 67.9532L256.586 67.9531L249.704 67.1227C248.876 67.8095 248.223 68.6732 247.795 69.6463C247.342 70.676 247.155 71.7975 247.25 72.9129L247.251 72.9232L247.251 72.9232L247.754 80.9689L247.754 80.9694C247.812 81.9029 247.642 82.8361 247.259 83.6924C246.875 84.5488 246.29 85.3034 245.552 85.8954C244.813 86.4873 243.943 86.9 243.011 87.1006C242.08 87.3011 241.113 87.2841 240.189 87.0509C240.189 87.0509 240.189 87.0509 240.189 87.0509L214.157 80.4819L213.007 80.1917L214.052 79.6309C218.319 77.3409 221.575 73.6099 223.208 69.1449C224.366 65.9325 224.87 62.5314 224.691 59.1316L224.608 57.5455L225.526 58.8419L231.329 67.0404L232.982 66.1143L232.99 66.1101L232.99 66.1101C234.366 65.3726 235.5 64.274 236.264 62.9412C237.028 61.6084 237.392 60.0944 237.315 58.5715L237.314 58.5599V58.5483V58.4694C237.233 57.1929 236.733 55.974 235.885 54.9929C235.135 54.1246 234.197 53.0374 233.349 52.054C233.076 51.7371 232.812 51.4309 232.567 51.1463L232.566 51.1461C232.138 50.6485 231.777 50.0987 231.494 49.5101L231.471 49.4639L231.46 49.4139L230.725 46.23L230.713 46.1784L230.713 46.1254C230.718 44.2835 231.315 42.4905 232.418 40.9984C233.522 39.5065 235.076 38.3908 236.86 37.8058L236.93 37.783H237.003C242.451 37.783 246.805 33.6848 246.805 28.7058V27.558V27.5578H247.265C247.264 25.9434 247.676 24.3581 248.459 22.9434L265.331 41.4947ZM265.331 41.4947L264.422 31.0705L265.331 41.4947Z" fill="#101010" stroke="#6D37FF" stroke-width="0.919642"/>
<path d="M162.041 100.059L162.04 100.059C159.505 99.9345 156.987 100.544 154.804 101.811C152.621 103.078 150.87 104.947 149.772 107.184L121.359 164.798L121.032 165.461H121.771H240.648H241.422L241.051 164.781L213.359 114.033C213.359 114.032 213.359 114.032 213.359 114.031C211.346 110.271 208.315 107.121 204.597 104.923C200.881 102.726 196.62 101.563 192.276 101.56L162.041 100.059Z" fill="black" stroke="#6D37FF" stroke-width="0.919642"/>
<path d="M175.915 70.3641L175.94 70.2577L175.975 70.1056L176.869 70.0956C177.631 73.0802 179.317 75.7665 181.699 77.7904C184.082 79.8144 187.046 81.078 190.192 81.4085L190.56 81.4472L190.601 81.8152L190.737 83.0416L190.741 83.0787L190.739 83.1159C190.566 86.4867 191.069 89.8583 192.223 93.0414C193.841 97.4724 197.07 101.176 201.303 103.449L202.466 104.073L201.167 104.307L165.488 110.714L175.915 70.3641ZM175.915 70.3641L175.941 70.4702M175.915 70.3641L175.941 70.4702M175.941 70.4702L178.277 80.0773C178.734 83.4453 179.206 86.9482 178.837 89.6229C178.653 90.9576 178.265 92.0273 177.612 92.7645C176.974 93.4853 176.037 93.9386 174.633 93.9602L174.621 93.9604L174.61 93.9612L164.373 94.653L163.764 94.6941L163.972 95.2682C164.531 96.8132 164.499 98.5024 163.882 100.027L163.882 100.027M175.941 70.4702L163.882 100.027M163.882 100.027L161.485 105.953C161.485 105.953 161.485 105.953 161.485 105.953C161.248 106.539 161.175 107.177 161.276 107.8C161.376 108.424 161.646 109.008 162.056 109.494C162.466 109.979 163.001 110.347 163.604 110.561C164.207 110.775 164.857 110.827 165.487 110.714L163.882 100.027Z" fill="#101010" stroke="#6D37FF" stroke-width="0.919642"/>
<path d="M151.57 52.1649L151.57 52.164C151.68 50.9266 152 49.7157 152.515 48.5805L152.671 48.2376L153.038 48.3228C153.658 48.4668 154.295 48.5289 154.932 48.5074C154.932 48.5074 154.933 48.5074 154.933 48.5074L165.657 48.1248L165.661 48.1246C166.356 48.1063 167.046 48.2381 167.683 48.511C168.319 48.7838 168.887 49.1912 169.345 49.7047C169.802 50.2181 170.138 50.8249 170.327 51.4815C170.516 52.1365 170.553 52.8243 170.437 53.4953L170.191 55.1144L170.191 55.1156C169.47 59.7798 169.836 64.5424 171.263 69.0503L171.263 69.0505L172.678 73.5296L172.724 73.6776L172.672 73.8236C172.171 75.2182 171.307 76.461 170.168 77.4315C169.028 78.4019 167.651 79.0671 166.171 79.3634L156.897 81.2324L156.481 81.3162L156.364 80.9081L156.073 79.8906C156.073 79.8901 156.073 79.8897 156.073 79.8892C155.782 78.8988 155.156 78.0302 154.294 77.4253C153.431 76.8201 152.383 76.5149 151.318 76.5608C151.318 76.5608 151.318 76.5608 151.318 76.5608L150.231 76.6098L149.752 76.6314L149.75 76.1526C149.75 76.0771 149.738 76.0021 149.716 75.9299L147.347 75.81L147.344 75.8099C146.934 75.7867 146.536 75.6618 146.187 75.4462C145.839 75.2305 145.551 74.9309 145.352 74.5747C145.154 74.2184 145.052 73.8178 145.056 73.4109C145.06 73.0041 145.171 72.6059 145.377 72.2539L151.57 52.1649ZM151.57 52.1649L151.157 56.9039L151.157 56.904L150.597 63.3161L145.377 72.2535L151.57 52.1649Z" fill="#101010" stroke="#FFE319" stroke-width="0.919642"/>
<path d="M150.591 39.2451L150.59 39.2451C149.873 39.2263 149.165 39.4084 148.55 39.7708C147.935 40.1332 147.437 40.6612 147.119 41.2935C146.8 41.9259 146.674 42.6352 146.756 43.3365C146.838 44.0281 147.118 44.6816 147.563 45.2218L147.916 45.7678L147.917 45.7686C148.4 46.5137 149.009 47.172 149.717 47.716C149.107 50.9318 149.631 54.2573 151.207 57.1494L151.936 58.4881L152.069 56.9693L152.481 52.2311C152.481 52.231 152.481 52.2308 152.481 52.2307C152.572 51.2183 152.815 50.2249 153.203 49.2824C153.781 49.3884 154.37 49.4319 154.959 49.412L154.96 49.4119L165.681 49.0294C165.682 49.0294 165.682 49.0294 165.683 49.0293C166.245 49.0148 166.802 49.1216 167.316 49.3417C167.83 49.5621 168.287 49.8903 168.654 50.302C169.02 50.7136 169.288 51.1984 169.439 51.7214C169.589 52.2443 169.619 52.7929 169.526 53.3281L169.526 53.3281L169.524 53.3379L169.278 54.9606C169.278 54.9607 169.278 54.9608 169.278 54.961C168.535 59.7652 168.912 64.6706 170.381 69.313C170.381 69.313 170.381 69.3131 170.381 69.3132L171.749 73.6422C171.298 74.828 170.551 75.888 169.572 76.7247C168.553 77.5951 167.32 78.1941 165.991 78.4619L165.991 78.4619L157.135 80.2475L156.956 79.6334C156.609 78.4341 155.856 77.3871 154.823 76.6609C153.79 75.9348 152.537 75.5713 151.268 75.6275L151.267 75.6275L150.19 75.6761H150.055H149.649L149.598 76.0788L148.002 88.8338C148.002 88.8339 148.002 88.834 148.002 88.8341C147.879 89.8097 147.982 90.7996 148.302 91.7311C148.623 92.6627 149.153 93.5117 149.852 94.2164C150.551 94.9211 151.403 95.4637 152.344 95.8054C153.283 96.1466 154.288 96.2791 155.286 96.1934L164.456 95.5707L164.456 95.5707L174.661 94.8797C176.276 94.8523 177.475 94.3178 178.314 93.3751C179.14 92.4463 179.57 91.1722 179.769 89.7495C180.162 86.93 179.669 83.2976 179.218 79.9797L179.211 79.93L179.208 79.908L179.203 79.8864L179.117 79.5234L179.117 79.5234L179.116 79.5179L177.988 74.9836C178.833 76.2931 179.874 77.4831 181.084 78.511C183.61 80.6563 186.749 81.9933 190.077 82.3429L190.101 82.3455H190.125H190.276H190.555L190.684 82.0975L197.184 69.5777L197.184 69.5777C204.589 55.3148 195.123 38.0512 178.814 36.4802L178.814 36.4802L178.811 36.4799L178.207 36.4259L178.207 36.4258L178.195 36.425L165.4 35.6253L165.386 35.6244H165.372H164.914C162.972 35.5381 161.031 35.8336 159.208 36.4937C157.442 37.1334 155.82 38.103 154.434 39.3481L150.591 39.2451Z" fill="black" stroke="#FFE319" stroke-width="0.919642"/>
<path d="M151.788 164.258L152.343 164.38L152.346 163.811L152.588 114.805C152.75 112.271 152.357 109.731 151.437 107.356C150.514 104.977 149.083 102.816 147.239 101.019C145.395 99.221 143.18 97.827 140.742 96.9284C138.304 96.0299 135.698 95.6473 133.097 95.8058L119.407 96.6398L119.407 96.6397L119.401 96.6401C112.602 97.1324 106.247 100.125 101.624 105.015C97.0017 109.906 94.4585 116.328 94.5137 122.981L94.9735 122.977L94.5137 122.981L94.7504 151.391L94.7534 151.758L95.1117 151.836L151.788 164.258Z" fill="black" stroke="#6D37FF" stroke-width="0.919642"/>
<path d="M140.52 155.559L140.52 155.559L101.717 157.796C88.8146 157.802 76.9944 166.5 71.0626 180.269C71.0621 180.27 71.0616 180.272 71.061 180.273L51.8347 222.927L51.5423 223.576H52.2539H187.857H188.522L188.287 222.954L171.419 178.31C171.419 178.31 171.419 178.31 171.419 178.31C165.962 163.856 153.75 154.8 140.52 155.559Z" fill="black" stroke="#6D37FF" stroke-width="0.919642"/>
<path d="M155.906 127.294L152.332 122.637L151.669 114.995L151.633 114.575H151.443L151.201 111.793C151.201 111.792 151.201 111.791 151.201 111.791C151.201 111.779 151.201 111.768 151.201 111.756L151.223 111.456L150.957 111.316C149.397 110.495 147.628 110.127 145.861 110.254C145.861 110.254 145.861 110.254 145.861 110.254L144.819 110.327C144.819 110.327 144.819 110.327 144.819 110.327C140.465 110.633 136.637 107.4 136.063 103.005L135.902 101.771L135.222 102.813C134.154 104.45 133.586 106.352 133.586 108.294C133.586 108.294 133.586 108.294 133.586 108.294V109.442C133.586 114.388 129.29 118.457 123.891 118.509L123.432 118.514L123.435 118.972L123.491 127.864C123.002 133.283 120.971 138.459 117.631 142.812L114.669 138.617L113.751 137.318L113.834 138.906C114 142.105 113.522 145.305 112.426 148.326C110.89 152.527 107.828 156.038 103.814 158.194L102.756 158.762L103.036 158.83L102.933 158.887L104.065 159.172L128.586 165.363L128.587 165.364C129.461 165.583 130.375 165.599 131.256 165.408C132.137 165.218 132.961 164.827 133.659 164.267C134.358 163.707 134.911 162.993 135.274 162.183C135.636 161.372 135.798 160.489 135.744 159.606L135.744 159.606L135.275 152.026L135.276 152.026L135.275 152.015C135.185 150.968 135.36 149.916 135.784 148.949C136.184 148.04 136.795 147.232 137.568 146.588L144.057 147.37L144.057 147.37C146.715 147.689 149.078 147.156 150.731 145.829C152.392 144.494 153.269 142.408 153.046 139.77L153.047 139.721L153.051 139.514C153.054 139.334 153.059 139.077 153.064 138.764C153.074 138.137 153.086 137.287 153.095 136.394C153.11 134.775 153.112 132.976 153.06 132.129L154.924 131.263L154.928 131.262C155.285 131.092 155.6 130.847 155.85 130.544C156.1 130.241 156.279 129.887 156.373 129.507C156.467 129.127 156.474 128.731 156.393 128.348C156.312 127.965 156.146 127.605 155.906 127.294C155.906 127.294 155.906 127.294 155.906 127.294Z" fill="#101010" stroke="#6D37FF" stroke-width="0.919642"/>
<path d="M303.007 74.4148L303.08 74.3788L303.137 74.3196L316.576 60.2789L316.577 60.2784C325.68 50.7351 318.538 35.097 305.224 35.5457H304.759H304.745L304.731 35.5466L291.911 36.3266L291.911 36.3264L291.898 36.3276L291.294 36.3815L291.291 36.3818C274.981 37.9328 265.517 55.212 272.921 69.4792L272.921 69.4794L280.846 84.7367L281.053 85.1348L281.456 84.938L303.007 74.4148Z" fill="black" stroke="#6D37FF" stroke-width="0.919642"/>
<path d="M256.767 114.015L256.758 114.032L256.751 114.049L235.105 164.703L234.831 165.343H235.527H347.913H348.697L348.315 164.659L316.769 108.188C316.769 108.188 316.769 108.187 316.769 108.187C315.324 105.598 313.154 103.464 310.513 102.033C307.873 100.603 304.87 99.9334 301.855 100.103L301.855 100.103L277.86 101.471C273.507 101.478 269.238 102.65 265.52 104.859C261.798 107.071 258.77 110.238 256.767 114.015Z" fill="black" stroke="#6D37FF" stroke-width="0.919642"/>
<path d="M279.392 82.9379L279.387 82.9753L279.389 83.0129C279.562 86.3853 279.059 89.7584 277.906 92.9432C276.287 97.3729 273.058 101.075 268.826 103.346L267.663 103.97L268.961 104.204L304.641 110.63L304.641 110.63C305.27 110.743 305.918 110.69 306.52 110.477C307.121 110.265 307.655 109.899 308.065 109.416C308.475 108.934 308.747 108.352 308.851 107.731C308.955 107.11 308.887 106.474 308.654 105.887L308.653 105.884L306.256 99.9581L306.255 99.9556C305.641 98.4619 305.6 96.8033 306.138 95.2823C306.675 93.7628 307.757 92.4795 309.188 91.6688L309.332 91.5922L311.057 91.8005L311.057 91.8006C313.911 92.144 316.19 91.1993 317.743 89.4401C319.282 87.697 320.075 85.1947 320.076 82.4562L320.077 82.4465L320.078 82.3995L320.083 82.2194C320.088 82.0636 320.095 81.8395 320.104 81.5666C320.123 81.0207 320.15 80.2803 320.185 79.5015C320.249 78.0618 320.338 76.5447 320.44 75.8498L322.777 75.7316L322.778 75.7315C323.19 75.7091 323.589 75.5848 323.939 75.3694C324.289 75.1539 324.578 74.8542 324.778 74.4975C324.977 74.1407 325.081 73.7393 325.077 73.3315C325.073 72.9236 324.963 72.5241 324.757 72.1708L324.757 72.1706L319.522 63.2035L318.957 56.6981L318.819 55.107L318.768 55.2056L318.494 52.0522L318.493 52.0506C318.381 50.8129 318.06 49.602 317.543 48.4671L317.386 48.1249L317.02 48.21C316.4 48.354 315.763 48.4161 315.126 48.3946C315.126 48.3946 315.126 48.3946 315.126 48.3946L304.407 48.0071V48.0071L304.402 48.0069C303.707 47.9886 303.016 48.1205 302.379 48.3937C301.741 48.6668 301.173 49.0746 300.715 49.5884C300.257 50.1023 299.921 50.7096 299.732 51.3668C299.543 52.0226 299.505 52.7112 299.621 53.3831C299.784 54.439 300.132 55.4594 300.649 56.4L300.649 56.4013C302.189 59.1832 302.726 61.1098 302.704 62.4966C302.683 63.8488 302.128 64.7331 301.334 65.4514C300.929 65.8179 300.462 66.1408 299.962 66.459C299.778 66.5759 299.585 66.6952 299.389 66.816C299.069 67.0138 298.742 67.2157 298.438 67.4188C297.443 68.0831 296.481 68.8887 296.082 70.149L296.053 70.239L296.062 70.332L296.062 70.3322L296.062 70.3323L296.062 70.3328L296.063 70.3355L296.064 70.3542C296.065 70.3719 296.067 70.3998 296.069 70.4374C296.073 70.5125 296.076 70.626 296.074 70.7723C296.07 71.0651 296.046 71.4883 295.965 71.9983C295.802 73.0191 295.409 74.3802 294.491 75.7434C292.672 78.4443 288.704 81.2766 279.982 81.3227L279.573 81.3248L279.528 81.731L279.392 82.9379Z" fill="#101010" stroke="#6D37FF" stroke-width="0.919642"/>
<path d="M346.292 105.756L346.292 105.753C346.256 103.967 345.846 102.207 345.087 100.581C344.329 98.9552 343.237 97.4986 341.881 96.3C340.525 95.1015 338.933 94.1861 337.202 93.6096C335.471 93.033 333.638 92.8073 331.814 92.9459L331.814 92.9459L320.082 93.8469C316.69 92.8343 313.117 92.5286 309.595 92.9498C306.044 93.3745 302.626 94.5284 299.567 96.336C296.507 98.1435 293.874 100.564 291.844 103.437C289.814 106.311 288.432 109.572 287.791 113.006C287.15 116.44 287.264 119.967 288.125 123.355C288.987 126.742 290.576 129.912 292.787 132.656C294.999 135.399 297.782 137.653 300.952 139.269C303.994 140.82 307.326 141.751 310.745 142.006V142.588L311.431 142.201L311.708 142.045H311.708H311.71H311.712H311.714H311.716H311.718H311.72H311.722H311.724H311.725H311.727H311.729H311.731H311.733H311.735H311.737H311.739H311.741H311.742H311.744H311.746H311.748H311.75H311.752H311.754H311.756H311.758H311.759H311.761H311.763H311.765H311.767H311.769H311.771H311.773H311.775H311.776H311.778H311.78H311.782H311.784H311.786H311.788H311.79H311.792H311.793H311.795H311.797H311.799H311.801H311.803H311.805H311.807H311.809H311.81H311.812H311.814H311.816H311.818H311.82H311.822H311.824H311.826H311.827H311.829H311.831H311.833H311.835H311.837H311.839H311.841H311.843H311.844H311.846H311.848H311.85H311.852H311.854H311.856H311.858H311.86H311.861H311.863H311.865H311.867H311.869H311.871H311.873H311.875H311.877H311.878H311.88H311.882H311.884H311.886H311.888H311.89H311.892H311.894H311.895H311.897H311.899H311.901H311.903H311.905H311.907H311.909H311.911H311.913H311.914H311.916H311.918H311.92H311.922H311.924H311.926H311.928H311.93H311.931H311.933H311.935H311.937H311.939H311.941H311.943H311.945H311.947H311.948H311.95H311.952H311.954H311.956H311.958H311.96H311.962H311.964H311.965H311.967H311.969H311.971H311.973H311.975H311.977H311.979H311.981H311.983H311.984H311.986H311.988H311.99H311.992H311.994H311.996H311.998H312H312.001H312.003H312.005H312.007H312.009H312.011H312.013H312.015H312.017H312.018H312.02H312.022H312.024H312.026H312.028H312.03H312.032H312.034H312.036H312.037H312.039H312.041H312.043H312.045H312.047H312.049H312.051H312.053H312.054H312.056H312.058H312.06H312.062H312.064H312.066H312.068H312.07H312.072H312.073H312.075H312.077H312.079H312.081H312.083H312.085H312.087H312.089H312.091H312.092H312.094H312.096H312.098H312.1H312.102H312.104H312.106H312.108H312.109H312.111H312.113H312.115H312.117H312.119H312.121H312.123H312.125H312.127H312.128H312.13H312.132H312.134H312.136H312.138H312.14H312.142H312.144H312.146H312.147H312.149H312.151H312.153H312.155H312.157H312.159H312.161H312.163H312.165H312.166H312.168H312.17H312.172H312.174H312.176H312.178H312.18H312.182H312.184H312.185H312.187H312.189H312.191H312.193H312.195H312.197H312.199H312.201H312.202H312.204H312.206H312.208H312.21H312.212H312.214H312.216H312.218H312.22H312.222H312.223H312.225H312.227H312.229H312.231H312.233H312.235H312.237H312.239H312.241H312.242H312.244H312.246H312.248H312.25H312.252H312.254H312.256H312.258H312.26H312.261H312.263H312.265H312.267H312.269H312.271H312.273H312.275H312.277H312.279H312.28H312.282H312.284H312.286H312.288H312.29H312.292H312.294H312.296H312.298H312.3H312.301H312.303H312.305H312.307H312.309H312.311H312.313H312.315H312.317H312.319H312.32H312.322H312.324H312.326H312.328H312.33H312.332H312.334H312.336H312.338H312.34H312.341H312.343H312.345H312.347H312.349H312.351H312.353H312.355H312.357H312.359H312.36H312.362H312.364H312.366H312.368H312.37H312.372H312.374H312.376H312.378H312.38H312.381H312.383H312.385H312.387H312.389H312.391H312.393H312.395H312.397H312.399H312.401H312.402H312.404H312.406H312.408H312.41H312.412H312.414H312.416H312.418H312.42H312.422H312.423H312.425H312.427H312.429H312.431H312.433H312.435H312.437H312.439H312.441H312.443H312.444H312.446H312.448H312.45H312.452H312.454H312.456H312.458H312.46H312.462H312.464H312.466H312.467H312.469H312.471H312.473H312.475H312.477H312.479H312.481H312.483H312.485H312.487H312.488H312.49H312.492H312.494H312.496H312.498H312.5H312.502H312.504H312.506H312.508H312.51H312.511H312.513H312.515H312.517H312.519H312.521H312.523H312.525H312.527H312.529H312.531H312.533H312.534H312.536H312.538H312.54H312.542H312.544H312.546H312.548H312.55H312.552H312.554H312.556H312.557H312.559C312.559 142.045 312.559 142.045 312.559 142.045C316.899 142.046 321.167 140.959 324.952 138.886C328.736 136.814 331.911 133.825 334.168 130.208C336.426 126.591 337.689 122.468 337.837 118.235C337.974 114.292 337.138 110.38 335.406 106.825C335.793 106.852 336.183 106.854 336.571 106.83L336.574 106.829L337.551 106.761L337.551 106.761C339.052 106.654 340.553 106.967 341.877 107.661C343.17 108.344 344.258 109.341 345.037 110.554L345.598 111.426L345.868 110.425C346.182 109.263 346.33 108.065 346.307 106.863C346.307 106.863 346.307 106.863 346.307 106.862L346.292 105.756Z" fill="#000F25" stroke="#FFE319" stroke-width="0.919642"/>
<path d="M370.001 210.517H370.662L370.432 209.897L355.83 170.517C355.83 170.517 355.83 170.517 355.83 170.517C351.1 157.754 340.501 149.741 329.003 150.413L295.401 152.375C284.186 152.381 273.954 160.074 268.809 172.226L252.16 209.871L251.874 210.517H252.58H370.001Z" fill="#000F25" stroke="#6D37FF" stroke-width="0.919642"/>
<path d="M347.01 122.012L347.009 122.011L343.435 117.354L342.555 107.185L342.533 106.934L342.31 106.817C340.834 106.043 339.163 105.696 337.493 105.814L336.516 105.883C336.516 105.883 336.516 105.883 336.516 105.883C332.424 106.169 328.832 103.137 328.293 99.0115L328.132 97.7803L327.453 98.8192C326.445 100.359 325.908 102.148 325.907 103.977V103.977V105.061C325.907 109.736 321.815 113.584 316.699 113.584H316.623L316.551 113.609C315.977 113.804 315.426 114.057 314.905 114.364L314.677 114.498L314.679 114.763L314.764 128.671L314.765 128.84L314.876 128.968C314.963 129.069 315.05 129.173 315.138 129.276C315.302 129.47 315.467 129.665 315.63 129.846C316.425 130.763 316.894 131.903 316.97 133.098V133.172V133.184L316.97 133.195C317.043 134.624 316.701 136.045 315.983 137.296C315.266 138.546 314.2 139.577 312.908 140.267L312.908 140.267L312.901 140.271L311.343 141.136L305.901 133.46L304.985 132.168L305.067 133.75C305.232 136.947 304.755 140.145 303.664 143.165C302.128 147.366 299.066 150.878 295.052 153.033L294.008 153.594L295.157 153.884L319.678 160.075C320.552 160.296 321.468 160.312 322.349 160.122C323.231 159.933 324.055 159.542 324.754 158.981C325.452 158.421 326.006 157.706 326.368 156.895C326.731 156.084 326.891 155.201 326.836 154.317L326.368 146.738L326.368 146.738L326.367 146.727C326.277 145.68 326.452 144.628 326.877 143.661C327.277 142.751 327.887 141.943 328.66 141.3L335.149 142.081L335.149 142.081C337.818 142.402 340.151 141.796 341.766 140.395C343.383 138.992 344.219 136.847 343.997 134.219L344.22 126.803L346.006 125.975L346.008 125.974C346.366 125.807 346.682 125.564 346.934 125.262C347.186 124.961 347.367 124.608 347.464 124.228C347.56 123.849 347.569 123.453 347.491 123.07C347.412 122.686 347.248 122.325 347.01 122.012Z" fill="#101010" stroke="#FFE319" stroke-width="0.919642"/>
<path d="M254.156 130.213C256.698 130.434 261.688 136.439 260.349 143.68C259.896 146.138 258.919 147.703 257.715 148.743M254.156 130.213L257.957 151.578C258.051 150.627 257.969 149.666 257.715 148.743M254.156 130.213C251.381 130.002 248.536 128.629 248.521 125.518L254.156 130.213ZM257.715 148.743L258.159 148.621C258.184 148.713 258.208 148.806 258.23 148.898M257.715 148.743L258.016 149.091C258.088 149.028 258.16 148.964 258.23 148.898M258.415 151.623C258.415 151.623 258.415 151.623 258.415 151.624L258.193 153.914L258.191 153.938L258.186 153.961C257.618 156.762 259.738 159.309 262.254 159.107C265.124 158.801 267.478 161.427 267.232 164.43C266.939 168.02 264.299 170.908 260.9 171.189L260.879 171.191L260.858 171.191C252.092 171.109 243.324 171.016 234.554 170.911C234.17 170.916 233.787 170.89 233.407 170.832L233.394 170.83L233.394 170.83C231.62 170.51 229.956 169.411 228.723 167.918C227.488 166.423 226.659 164.501 226.587 162.491L226.586 162.483V162.474V162.4C226.539 161.109 226.869 159.833 227.538 158.72L227.54 158.717C227.797 158.298 228.087 157.824 228.385 157.336C228.856 156.564 229.349 155.758 229.766 155.081C230.403 154.036 230.728 152.84 230.705 151.626L230.705 151.618H230.705V151.507C230.691 149.785 230.07 148.12 228.948 146.791C228.677 146.837 228.402 146.864 228.127 146.872L228.116 146.872L228.104 146.872C226.28 146.836 224.522 146.196 223.119 145.058L196.926 143.649L196.518 143.627L196.492 143.219L194.553 113.293L195.012 113.263L194.553 113.293C194.407 111.029 194.756 108.76 195.579 106.639C196.401 104.517 197.677 102.591 199.321 100.988C200.965 99.3852 202.939 98.1424 205.113 97.3413C207.286 96.5403 209.609 96.1991 211.928 96.3403L211.928 96.3403L224.088 97.0811L224.093 97.0814L224.093 97.0814C229.734 97.4884 235.046 99.8285 239.088 103.689C243.086 107.509 245.586 112.574 246.152 118.004C247.61 119.376 248.526 121.21 248.732 123.183L258.415 151.623ZM258.415 151.623C258.505 150.71 258.442 149.79 258.23 148.898M258.415 151.623L248.732 123.185L248.978 125.469L248.981 125.492L248.981 125.516C248.988 126.907 249.617 127.897 250.571 128.579C251.542 129.274 252.858 129.653 254.19 129.755L254.195 129.755C254.975 129.823 255.855 130.315 256.688 131.047C257.535 131.791 258.386 132.829 259.107 134.085C260.549 136.596 261.494 140.017 260.801 143.763C260.358 146.168 259.421 147.785 258.23 148.898M211.9 96.7992V96.7992V96.7992Z" fill="black" stroke="#FFE319" stroke-width="0.919642"/>
<path d="M135.196 258.295L135.398 257.69L157.769 190.416L135.196 258.295ZM135.196 258.295H135.834M135.196 258.295H135.834M135.834 258.295H315.727H316.404M135.834 258.295H316.404M316.404 258.295L316.154 257.666M316.404 258.295L316.154 257.666M316.154 257.666L290.648 193.351C290.648 193.35 290.648 193.349 290.647 193.348M316.154 257.666L290.647 193.348M290.647 193.348C282.807 172.694 267.218 159.623 250.103 159.616L198.628 156.251C198.628 156.251 198.628 156.251 198.628 156.251C181.113 155.104 164.968 168.713 157.769 190.416L290.647 193.348Z" fill="black" stroke="#6D37FF" stroke-width="0.919642"/>
<path d="M229.107 145.804L229.107 145.804L229.094 145.807C228.768 145.878 228.436 145.921 228.102 145.933C226.559 145.959 224.912 145.31 223.532 144.193C222.167 143.088 221.096 141.552 220.659 139.836V139.814V139.758L220.645 139.703C220.373 138.616 220.426 137.475 220.799 136.417C220.985 135.897 221.201 135.299 221.422 134.69C221.705 133.907 221.995 133.104 222.239 132.424L222.239 132.422C222.695 131.126 222.779 129.734 222.482 128.396V128.335V128.284L222.471 128.235C221.712 124.818 218.937 122.189 215.639 121.848L215.552 121.839L215.467 121.863C211.59 122.962 207.356 120.443 206.058 116.124L206.057 116.122L206.053 116.109L206.038 116.058L205.98 115.861C205.93 115.691 205.857 115.445 205.766 115.143C204.456 110.776 200.524 107.9 196.407 108.105C196.258 108.036 196.117 108.067 196.044 108.096C195.969 108.125 195.92 108.167 195.9 108.185C195.876 108.206 195.858 108.227 195.847 108.24C195.787 108.312 195.731 108.423 195.693 108.5C195.598 108.693 195.466 109.001 195.328 109.372C195.054 110.109 194.737 111.149 194.656 112.081C194.656 112.081 194.656 112.081 194.656 112.081L193.691 123.172L190.122 127.829C190.122 127.829 190.122 127.829 190.122 127.829C189.882 128.142 189.715 128.504 189.635 128.889C189.555 129.274 189.564 129.671 189.661 130.052C189.757 130.433 189.939 130.787 190.192 131.09C190.446 131.393 190.764 131.636 191.124 131.803L191.125 131.803L193.026 132.682C193.128 133.38 193.195 134.945 193.235 136.408C193.256 137.168 193.27 137.886 193.278 138.414C193.282 138.678 193.285 138.894 193.287 139.045L193.289 139.218L193.289 139.264L193.29 139.273C193.246 141.851 194.03 144.173 195.537 145.776C197.054 147.391 199.268 148.234 201.976 147.909L201.976 147.909L208.465 147.128C209.238 147.771 209.848 148.578 210.249 149.487C210.675 150.453 210.851 151.504 210.763 152.551L210.763 152.551L210.763 152.561L210.289 160.145L210.289 160.146C210.235 161.029 210.397 161.912 210.759 162.722C211.122 163.532 211.676 164.247 212.374 164.807C213.072 165.367 213.896 165.758 214.777 165.948C215.658 166.138 216.572 166.123 217.446 165.903L217.447 165.903L241.968 159.712L243.118 159.422L242.073 158.861C238.059 156.707 234.998 153.195 233.466 148.993C233.109 148.007 232.819 147 232.597 145.977L232.524 145.637L232.177 145.615C231.15 145.55 230.118 145.614 229.107 145.804Z" fill="#101010" stroke="#FFE319" stroke-width="0.919642"/>
<path d="M217.535 275.049H218.274L217.947 274.385L189.529 216.757L189.116 216.959L189.528 216.756L189.529 216.756C188.433 214.519 186.683 212.649 184.501 211.382C182.318 210.115 179.801 209.506 177.266 209.632L177.288 210.091L177.266 209.632L147.025 211.132C142.679 211.134 138.416 212.296 134.699 214.493C130.978 216.691 127.946 219.842 125.932 223.604C125.932 223.605 125.932 223.605 125.932 223.606L98.2448 274.369L97.8739 275.049H98.6484H217.535Z" fill="#000F25" stroke="#6D37FF" stroke-width="0.919642"/>
<path d="M178.004 217.369C178.105 216.746 178.032 216.108 177.795 215.522C177.795 215.522 177.795 215.521 177.795 215.521L175.414 209.596L175.414 209.595C174.799 208.072 174.767 206.385 175.324 204.841L175.531 204.267L174.923 204.226L164.711 203.534L164.7 203.534L164.689 203.534C163.278 203.507 162.335 203.051 161.693 202.328C161.037 201.589 160.647 200.52 160.461 199.186C160.088 196.514 160.559 193.016 161.014 189.65L163.35 180.043L163.375 179.937L163.351 179.831L163.315 179.679L162.422 179.669C161.659 182.652 159.975 185.337 157.593 187.36C155.211 189.383 152.248 190.646 149.104 190.977L148.737 191.015L148.695 191.382L148.554 192.608L148.549 192.646L148.551 192.684C148.725 196.057 148.221 199.43 147.068 202.615C145.449 207.044 142.22 210.746 137.988 213.017L136.824 213.641L138.124 213.875L173.793 220.287L173.794 220.287C174.424 220.4 175.074 220.346 175.677 220.131C176.28 219.916 176.814 219.548 177.223 219.062C177.633 218.577 177.903 217.992 178.004 217.369Z" fill="#101010" stroke="#6D37FF" stroke-width="0.919642"/>
<path d="M189.541 185.729C189.539 185.657 189.549 185.586 189.57 185.518L191.939 185.398L191.941 185.398C192.354 185.375 192.755 185.249 193.106 185.032C193.456 184.815 193.745 184.513 193.944 184.154C194.143 183.795 194.244 183.391 194.238 182.981C194.231 182.573 194.117 182.173 193.908 181.82C193.908 181.82 193.907 181.819 193.907 181.819L188.689 172.889L188.129 166.473L188.129 166.472L187.721 161.739L187.721 161.736C187.607 160.499 187.285 159.289 186.771 158.154L186.615 157.811L186.248 157.896C185.628 158.04 184.991 158.102 184.354 158.08C184.354 158.08 184.354 158.08 184.353 158.08L173.629 157.693L173.629 157.693L173.624 157.693C172.93 157.675 172.239 157.808 171.603 158.081C170.966 158.355 170.398 158.763 169.941 159.276C169.484 159.79 169.148 160.397 168.959 161.054C168.77 161.709 168.733 162.398 168.849 163.069L169.1 164.684C169.1 164.684 169.1 164.684 169.1 164.684C169.82 169.35 169.452 174.114 168.023 178.623L168.023 178.624L166.608 183.103L166.562 183.25L166.614 183.396C167.114 184.792 167.976 186.036 169.114 187.008C170.253 187.98 171.629 188.647 173.109 188.946L182.384 190.82L182.796 190.903L182.916 190.5L183.218 189.48L183.218 189.477C183.507 188.485 184.132 187.615 184.995 187.01C185.858 186.404 186.907 186.1 187.972 186.149L187.973 186.149L189.06 186.198L189.551 186.22L189.541 185.729Z" fill="#101010" stroke="#6D37FF" stroke-width="0.919642"/>
<path d="M188.069 166.747C189.65 163.858 190.174 160.532 189.559 157.318C190.266 156.773 190.875 156.116 191.359 155.372C191.359 155.372 191.359 155.371 191.359 155.371L191.715 154.827C192.17 154.289 192.459 153.634 192.546 152.939C192.635 152.234 192.513 151.519 192.195 150.881C191.877 150.243 191.378 149.71 190.758 149.345C190.14 148.98 189.427 148.797 188.705 148.818C188.705 148.818 188.705 148.818 188.705 148.818L184.863 148.921C183.478 147.676 181.857 146.706 180.091 146.066C178.269 145.406 176.329 145.111 174.388 145.197H173.925H173.91L173.895 145.198L161.075 146.022L161.075 146.022L161.064 146.023L160.46 146.077L160.457 146.078C144.148 147.648 134.682 164.907 142.087 179.175L142.087 179.175L148.587 191.69L148.716 191.938H148.995H149.151H149.175L149.199 191.935C152.526 191.586 155.664 190.249 158.188 188.105C159.419 187.059 160.476 185.845 161.329 184.509L160.206 189.135L160.205 189.137L160.115 189.498L160.109 189.522L160.105 189.547L160.095 189.626C159.647 192.934 159.158 196.553 159.55 199.365C159.748 200.788 160.179 202.062 161.006 202.991C161.844 203.934 163.044 204.469 164.661 204.497L174.86 205.188L174.86 205.188L184.029 205.805C184.03 205.805 184.031 205.806 184.032 205.806C185.026 205.885 186.026 205.748 186.96 205.404C187.895 205.059 188.74 204.516 189.434 203.812C190.128 203.109 190.653 202.263 190.971 201.335C191.289 200.408 191.391 199.422 191.269 198.451L189.678 185.696L189.628 185.293H189.222H189.086L188.009 185.244C188.009 185.244 188.009 185.244 188.009 185.244C186.742 185.187 185.492 185.548 184.461 186.272C183.43 186.995 182.678 188.038 182.33 189.234C182.33 189.234 182.33 189.235 182.33 189.235L182.148 189.85L173.286 188.059C171.957 187.791 170.724 187.192 169.706 186.323C168.727 185.487 167.979 184.429 167.527 183.244L168.895 178.916C170.366 174.272 170.745 169.364 170.003 164.558L170.003 164.557L169.752 162.939L169.752 162.939L169.75 162.93C169.657 162.395 169.687 161.846 169.837 161.323C169.988 160.8 170.256 160.315 170.623 159.903C170.989 159.49 171.446 159.162 171.96 158.941C172.474 158.72 173.031 158.613 173.593 158.627C173.594 158.627 173.595 158.627 173.596 158.627L184.316 159.014L184.317 159.014C184.906 159.034 185.495 158.991 186.073 158.885C186.461 159.828 186.706 160.821 186.8 161.833C186.8 161.834 186.8 161.834 186.8 161.835L187.208 166.566L187.338 168.083L188.069 166.747Z" fill="black" stroke="#6D37FF" stroke-width="0.919642"/>
<path d="M277.158 183.991L277.214 184.05L277.288 184.086L298.839 194.609L299.242 194.806L299.449 194.408L307.369 179.151C314.778 164.883 305.308 147.604 289.003 146.053V146.053L289.001 146.053L288.391 145.999L288.391 145.998L288.379 145.998L275.564 145.218L275.55 145.217H275.536H275.071C261.756 144.768 254.615 160.406 263.718 169.949L263.719 169.95L277.158 183.991Z" fill="black" stroke="#6D37FF" stroke-width="0.919642"/>
<path d="M323.54 223.721L323.533 223.703L323.524 223.686C321.523 219.909 318.495 216.742 314.774 214.53C311.056 212.321 306.788 211.149 302.436 211.142L278.441 209.799C275.426 209.629 272.423 210.298 269.783 211.729C267.142 213.16 264.972 215.294 263.527 217.883L231.981 274.355L231.599 275.039H232.383H344.769H345.465L345.191 274.398L323.54 223.721Z" fill="#000F25" stroke="#6D37FF" stroke-width="0.919642"/>
<path d="M261.806 161.723L261.402 166.36L261.342 166.37L260.782 172.889L255.558 181.822L255.557 181.822C255.351 182.176 255.241 182.576 255.238 182.984C255.234 183.393 255.338 183.795 255.538 184.152L255.938 183.927L255.538 184.152C255.739 184.508 256.029 184.808 256.379 185.023L256.62 184.631L256.379 185.023C256.73 185.238 257.13 185.362 257.542 185.383L257.543 185.383L259.875 185.501C259.979 186.194 260.069 187.712 260.134 189.153C260.169 189.932 260.196 190.672 260.215 191.218C260.224 191.491 260.231 191.715 260.236 191.871L260.241 192.051L260.243 192.098L260.243 192.108C260.244 194.846 261.038 197.348 262.577 199.092C264.13 200.851 266.408 201.796 269.262 201.452L269.262 201.452L270.987 201.244L271.131 201.32C272.563 202.13 273.645 203.414 274.182 204.934C274.719 206.455 274.676 208.114 274.059 209.607L274.058 209.61L271.661 215.536L271.661 215.536C271.423 216.125 271.352 216.767 271.455 217.393C271.558 218.019 271.831 218.605 272.245 219.091C272.658 219.577 273.197 219.944 273.803 220.157C274.409 220.369 275.062 220.419 275.694 220.301C275.695 220.301 275.696 220.301 275.696 220.301L311.373 213.889L312.678 213.655L311.508 213.031C307.256 210.765 304.011 207.056 302.388 202.614C301.233 199.43 300.729 196.057 300.905 192.684L300.907 192.648L300.903 192.611L300.772 191.404L300.728 190.996L300.317 190.994C291.595 190.948 287.627 188.115 285.808 185.415C284.89 184.051 284.498 182.69 284.334 181.669C284.253 181.159 284.229 180.736 284.225 180.443C284.224 180.297 284.227 180.184 284.23 180.109C284.232 180.071 284.234 180.043 284.235 180.025L284.237 180.007L284.237 180.004L284.237 180.003L284.237 180.003L284.237 180.003L284.246 179.91L284.218 179.82C283.818 178.56 282.857 177.754 281.861 177.09C281.557 176.887 281.23 176.685 280.91 176.487C280.714 176.366 280.521 176.247 280.337 176.13C279.837 175.812 279.37 175.489 278.965 175.123C278.171 174.404 277.617 173.52 277.595 172.168C277.573 170.781 278.111 168.854 279.65 166.072L279.651 166.071C280.167 165.13 280.515 164.11 280.678 163.054C280.794 162.382 280.757 161.694 280.568 161.038C280.378 160.381 280.042 159.773 279.584 159.26C279.126 158.746 278.558 158.338 277.921 158.065C277.283 157.792 276.592 157.66 275.897 157.678L275.893 157.678L265.169 158.066C265.168 158.066 265.168 158.066 265.168 158.066C264.531 158.087 263.894 158.025 263.274 157.881L262.907 157.796L262.751 158.14C262.238 159.275 261.919 160.485 261.806 161.721L261.806 161.723Z" fill="#101010" stroke="#6D37FF" stroke-width="0.919642"/>
<path d="M58.629 147.044L58.629 147.044C74.9367 148.615 84.4036 165.878 76.9788 180.117L58.629 147.044ZM58.629 147.044L58.6221 147.044L58.0179 146.994L58.0179 146.994L58.0084 146.994L55.6035 146.849C51.6302 144.472 46.9497 143.474 42.321 144.017C37.7182 144.556 33.4353 146.588 30.1593 149.784C29.5092 149.8 28.8724 149.98 28.3125 150.31C27.6947 150.673 27.1958 151.204 26.8772 151.839C26.5584 152.474 26.434 153.187 26.5196 153.89C26.6041 154.584 26.889 155.239 27.3394 155.778L27.6954 156.322C27.6956 156.322 27.6959 156.323 27.6961 156.323C28.1782 157.069 28.7873 157.727 29.4962 158.27C29.075 160.471 29.1823 162.737 29.8114 164.893C30.4682 167.143 31.674 169.203 33.3246 170.898C33.3251 170.899 33.3257 170.899 33.3262 170.9L46.7621 184.962L46.8189 185.021L46.8929 185.058L68.4436 195.576L68.8462 195.772L69.0531 195.375L70.4781 192.637L70.4783 192.637L76.9784 180.118L58.629 147.044Z" fill="#000F25" stroke="#FFE319" stroke-width="0.919642"/>
<path d="M103.826 224.461L103.817 224.441L103.805 224.422C103.121 223.3 102.358 222.226 101.523 221.206L101.522 221.205C97.7271 216.594 92.7717 213.021 87.1397 210.833C81.5081 208.645 75.3913 207.917 69.3853 208.718C69.385 208.718 69.3847 208.718 69.3843 208.718L53.435 210.778C46.6313 210.452 40.1784 213.524 36.8721 218.724L36.8719 218.724L1.62547 274.244L1.1771 274.951H2.01367H127.607H128.341L128.02 274.29L103.826 224.461Z" fill="black" stroke="#6D37FF" stroke-width="0.919642"/>
<path d="M76.6507 210.754L76.6508 210.754L76.6437 210.747C74.57 208.736 72.9882 206.297 72.0145 203.611C70.818 200.051 70.2744 196.313 70.4085 192.569L70.4088 192.561V192.553V192.445V191.987L69.9506 191.985C61.1955 191.953 57.2075 189.121 55.3771 186.416C54.4533 185.051 54.0567 183.687 53.8913 182.664C53.8086 182.153 53.784 181.729 53.7798 181.435C53.7777 181.288 53.7807 181.175 53.7841 181.099C53.7858 181.062 53.7876 181.034 53.7888 181.016L53.7903 180.997L53.7905 180.994L53.7906 180.994L53.7906 180.994L53.7906 180.994L53.7995 180.901L53.7711 180.811C53.3715 179.551 52.4102 178.745 51.415 178.081C51.1106 177.878 50.7834 177.676 50.463 177.478C50.2675 177.357 50.0746 177.238 49.891 177.122C49.391 176.803 48.9235 176.481 48.5186 176.114C47.725 175.396 47.1703 174.512 47.1487 173.161C47.1266 171.775 47.6642 169.849 49.2034 167.069L49.2041 167.067C49.7217 166.125 50.0694 165.103 50.2318 164.045C50.3479 163.374 50.3102 162.686 50.1216 162.031C49.9326 161.374 49.5969 160.768 49.1393 160.254C48.6818 159.741 48.114 159.333 47.4773 159.061C46.8406 158.788 46.1502 158.656 45.4557 158.674L45.4514 158.674L34.7273 159.057C34.7271 159.057 34.727 159.057 34.7269 159.057C34.0898 159.078 33.4527 159.016 32.8328 158.872L32.4657 158.787L32.31 159.13C31.7952 160.266 31.474 161.475 31.3595 162.712L31.3595 162.712L31.3593 162.715L30.3914 173.866L25.1717 182.803C24.9653 183.156 24.8546 183.556 24.8508 183.963C24.8471 184.371 24.9505 184.773 25.1504 185.129C25.3503 185.486 25.6396 185.785 25.9898 186C26.3399 186.215 26.7397 186.338 27.1512 186.36L27.1517 186.36L29.4678 186.477C29.5148 187.189 29.5737 188.659 29.6232 190.028C29.6509 190.794 29.6754 191.523 29.693 192.061C29.7018 192.33 29.7089 192.551 29.7138 192.705L29.7194 192.882L29.7208 192.929L29.721 192.934C29.649 197.158 30.4494 199.76 32.1104 201.189C33.7697 202.617 36.1459 202.747 38.8712 202.419L38.8714 202.419L40.5992 202.21C43.5252 203.758 44.8745 207.599 43.6518 210.62L43.6517 210.621L41.2754 216.507C41.2753 216.507 41.2752 216.507 41.2751 216.508C41.0374 217.094 40.965 217.732 41.0656 218.355C41.1663 218.978 41.4364 219.563 41.8464 220.048C42.2563 220.533 42.7909 220.901 43.3939 221.115C43.9969 221.329 44.6472 221.382 45.2776 221.268L74.9438 215.941C75.5036 215.841 76.0265 215.595 76.4564 215.228C76.8864 214.861 77.2076 214.386 77.3841 213.853C77.5607 213.319 77.5856 212.749 77.456 212.203C77.3265 211.656 77.0476 211.156 76.6507 210.754Z" fill="#101010" stroke="#FFE319" stroke-width="0.919642"/>
<path d="M145.757 223.659L145.764 223.633L145.767 223.606L146.104 220.977C146.718 216.217 143.184 212.097 138.433 211.335L138.5 203.344V203.344C138.548 197.417 136.282 191.696 132.165 187.338C128.048 182.982 122.388 180.314 116.332 179.873L116.332 179.873L116.326 179.873L104.176 179.137C104.176 179.137 104.176 179.137 104.176 179.137C101.857 178.996 99.5343 179.337 97.3609 180.138C95.1875 180.939 93.2129 182.182 91.5689 183.785C89.9248 185.387 88.6489 187.314 87.8266 189.435C87.0043 191.557 86.6546 193.826 86.8013 196.09L87.2601 196.06L86.8013 196.09L88.7398 226.016L88.7662 226.423L89.1739 226.445L106.515 227.381L104.92 229.59C104.92 229.591 104.919 229.591 104.919 229.592C104.017 230.826 103.548 232.313 103.583 233.831V233.924H103.582L103.583 233.936C103.711 238.536 107.869 242.692 112.462 243.342L112.462 243.342L112.472 243.343C112.974 243.403 113.478 243.427 113.983 243.415L126.672 243.376H126.672L149.23 243.312L149.248 243.312L149.266 243.311C153.686 242.946 157.261 239.711 157.742 235.546L157.742 235.546L157.742 235.539C158.092 232.02 154.939 229.175 151.286 229.551C147.695 229.84 144.965 226.823 145.757 223.659Z" fill="black" stroke="#6D37FF" stroke-width="0.919642"/>
<path d="M104.734 239.003L104.733 239.003C100.517 238.812 96.3377 239.856 92.7338 242C89.1301 244.145 86.2662 247.294 84.5131 251.041C84.513 251.041 84.5129 251.042 84.5128 251.042L73.5215 274.373L73.2126 275.029H73.9375H162.054H162.838L162.455 274.344L149.972 252.025C149.971 252.024 149.97 252.023 149.97 252.022C148.058 248.449 145.178 245.458 141.646 243.37C138.116 241.283 134.067 240.179 129.94 240.175L104.734 239.003Z" fill="black" stroke="#6D37FF" stroke-width="0.919642"/>
<path d="M95.0028 198.867L95.4608 198.825L95.4608 198.825L95.4608 198.825L95.4607 198.825L95.4607 198.824L95.4604 198.821L95.4592 198.807L95.4544 198.754L95.4363 198.551C95.4206 198.374 95.3979 198.118 95.3703 197.802C95.2219 196.064 94.5661 194.405 93.4821 193.02C92.471 191.721 90.8882 191.36 89.5378 191.717C88.1848 192.075 87.0146 193.17 86.8661 194.812L86.8643 194.833V194.854V194.883L85.9008 205.954L82.3297 210.607C82.3292 210.608 82.3287 210.609 82.3282 210.609C82.0848 210.921 81.9148 211.282 81.8314 211.667C81.7478 212.052 81.7534 212.451 81.8478 212.834C81.9421 213.218 82.1227 213.575 82.3755 213.88C82.6281 214.185 82.9464 214.43 83.3067 214.599L95.0028 198.867ZM95.0028 198.867L95.4608 198.825L95.4609 198.827C95.8394 203.233 100.029 206.549 104.844 206.155L104.917 206.149L104.987 206.165C106.724 206.573 108.275 207.534 109.394 208.897C110.513 210.261 111.136 211.951 111.162 213.7L111.162 213.707H111.162V213.819C111.168 215.252 110.712 216.649 109.861 217.814C109.051 218.927 107.994 220.388 107.203 221.482L107.202 221.484C106.525 222.413 106.175 223.529 106.203 224.665L106.203 224.676H106.203V224.754C106.3 228.327 109.597 231.657 113.267 232.153C113.573 232.187 113.882 232.203 114.191 232.199L114.195 232.198C117.952 232.179 121.707 232.169 125.461 232.169H125.769L125.886 232.454C127.496 236.366 130.445 239.619 134.238 241.658L135.282 242.219L134.133 242.509L109.612 248.7C108.738 248.921 107.823 248.937 106.941 248.747C106.059 248.557 105.235 248.167 104.536 247.606C103.838 247.046 103.284 246.331 102.922 245.52C102.559 244.709 102.399 243.826 102.454 242.942L102.922 235.362L102.923 235.352L102.923 235.352C103.011 234.306 102.835 233.254 102.41 232.287C102.011 231.378 101.401 230.569 100.63 229.925L94.1413 230.706L94.1412 230.706C91.4589 231.028 89.162 230.349 87.5899 228.875C86.023 227.405 85.2341 225.201 85.4532 222.582L85.451 222.547L85.4387 222.353C85.4281 222.184 85.4131 221.942 85.3955 221.648C85.3603 221.06 85.3144 220.263 85.2719 219.427C85.1956 217.928 85.1268 216.255 85.1568 215.469L83.3074 214.599L95.0028 198.867Z" fill="#101010" stroke="#6D37FF" stroke-width="0.919642"/>
<path d="M105.391 180.363L105.326 181.278L105.88 181.356L106.016 180.446C105.988 180.442 105.953 180.435 105.912 180.428C105.773 180.401 105.57 180.363 105.391 180.363Z" fill="black" stroke="#6D37FF" stroke-width="0.919642"/>
<path d="M347.312 234.244L367.114 233.176L367.521 233.154L367.548 232.747L369.748 198.842L369.748 198.842C369.914 196.285 369.519 193.723 368.591 191.326C367.663 188.93 366.222 186.754 364.366 184.942C362.51 183.131 360.281 181.726 357.826 180.819C355.371 179.912 352.747 179.525 350.128 179.682L350.127 179.682L336.326 180.521L336.326 180.52L336.321 180.521C329.469 181.018 323.066 184.035 318.409 188.963C313.752 193.892 311.19 200.364 311.247 207.068L311.319 216.176C305.938 217.018 301.926 221.677 302.62 227.056L303.003 230.033L303.006 230.06L303.013 230.087C303.926 233.711 300.783 237.175 296.678 236.841C292.568 236.421 289.036 239.619 289.431 243.546L289.432 243.551C289.947 248.207 293.975 251.89 298.96 252.298L298.978 252.3L298.996 252.3L324.574 252.374C329.369 252.4 334.167 252.413 338.965 252.413C339.534 252.43 340.104 252.404 340.669 252.336L340.669 252.336L340.679 252.335C345.86 251.596 350.553 246.911 350.691 241.727L350.691 241.727V241.714V241.612C350.733 239.904 350.207 238.228 349.193 236.837C349.193 236.837 349.193 236.837 349.193 236.837L347.312 234.244Z" fill="black" stroke="#FFE319" stroke-width="0.919642"/>
<path d="M374.175 215.565L370.602 210.909L369.939 203.267L369.902 202.846H369.712L369.471 200.065C369.471 200.064 369.471 200.063 369.471 200.062C369.47 200.051 369.47 200.039 369.471 200.028L369.493 199.728L369.226 199.588C367.666 198.767 365.898 198.399 364.131 198.526C364.131 198.526 364.131 198.526 364.131 198.526L363.089 198.599C363.089 198.599 363.089 198.599 363.089 198.599C358.735 198.905 354.907 195.672 354.333 191.276L354.171 190.042L353.491 191.085C352.423 192.722 351.856 194.623 351.856 196.566C351.856 196.566 351.856 196.566 351.856 196.566V197.714C351.856 202.66 347.56 206.729 342.16 206.781L341.702 206.785L341.705 207.244L341.76 216.136C341.272 221.555 339.241 226.731 335.9 231.084L332.938 226.889L332.021 225.589L332.103 227.178C332.269 230.377 331.791 233.577 330.695 236.598C329.16 240.799 326.097 244.31 322.083 246.465L321.026 247.033L321.306 247.102L321.203 247.158L322.334 247.444L346.856 253.635L346.856 253.635C347.73 253.855 348.645 253.87 349.526 253.68C350.407 253.49 351.23 253.099 351.929 252.539C352.627 251.979 353.181 251.265 353.543 250.454C353.906 249.644 354.067 248.761 354.013 247.878L354.013 247.877L353.545 240.298L353.545 240.298L353.544 240.287C353.454 239.24 353.629 238.188 354.054 237.221C354.454 236.311 355.064 235.503 355.837 234.86L362.326 235.641L362.326 235.641C364.985 235.961 367.348 235.428 369 234.1C370.661 232.766 371.538 230.679 371.316 228.041L371.316 227.993L371.32 227.785C371.324 227.606 371.328 227.349 371.333 227.035C371.344 226.409 371.356 225.559 371.364 224.665C371.379 223.046 371.381 221.248 371.329 220.401L373.194 219.535L373.198 219.533C373.554 219.364 373.869 219.119 374.12 218.816C374.37 218.513 374.549 218.158 374.643 217.778C374.737 217.398 374.744 217.003 374.663 216.62C374.582 216.237 374.415 215.877 374.175 215.565C374.175 215.565 374.175 215.565 374.175 215.565Z" fill="#101010" stroke="#FFE319" stroke-width="0.919642"/>
<path d="M349.243 239.003L349.243 239.003L324.032 240.175C319.904 240.179 315.856 241.283 312.326 243.37C308.793 245.458 305.914 248.449 304.002 252.021L291.482 274.369L291.098 275.053H291.883H379.999H380.723L380.415 274.398L369.459 251.042C367.707 247.294 364.844 244.145 361.241 242C357.638 239.855 353.459 238.812 349.243 239.003Z" fill="black" stroke="#6D37FF" stroke-width="0.919642"/>
<path d="M196.304 200.83C196.304 200.83 196.304 200.83 196.304 200.831C196.302 200.84 196.292 200.897 196.266 201.03C196.24 201.162 196.203 201.347 196.155 201.582C196.058 202.052 195.919 202.719 195.742 203.554C195.39 205.223 194.892 207.564 194.295 210.351C193.103 215.924 191.522 223.278 189.943 230.608C188.364 237.937 186.788 245.241 185.607 250.712C185.016 253.448 184.524 255.726 184.18 257.319L183.78 259.169L183.675 259.656L183.648 259.781L183.641 259.812L183.639 259.82L183.639 259.822C183.638 259.823 183.638 259.823 184.088 259.92L183.638 259.823L183.519 260.376L184.085 260.38L245.515 260.758L245.963 260.76L245.977 260.312L247.93 196.097C248.076 193.835 247.726 191.569 246.905 189.45C246.082 187.328 244.806 185.402 243.162 183.799C241.518 182.197 239.544 180.954 237.37 180.153C235.197 179.352 232.874 179.011 230.555 179.152L218.385 179.893L218.38 179.893C212.765 180.295 207.474 182.613 203.436 186.441C199.398 190.269 196.872 195.364 196.304 200.83ZM196.304 200.83C196.304 200.83 196.304 200.83 196.304 200.83L196.762 200.878M196.304 200.83L196.762 200.878M196.762 200.878C197.317 195.522 199.793 190.529 203.752 186.775C207.712 183.021 212.903 180.747 218.413 180.352L184.187 259.461C185.368 254 196.68 201.65 196.762 200.878Z" fill="black" stroke="#6D37FF" stroke-width="0.919642"/>
<path d="M229.96 239.003L229.961 239.003C234.177 238.812 238.357 239.856 241.96 242C245.564 244.145 248.428 247.294 250.181 251.041L229.96 239.003ZM229.96 239.003L204.754 240.175C200.627 240.179 196.579 241.283 193.048 243.37C189.516 245.458 186.637 248.449 184.725 252.021L172.204 274.369L171.821 275.053H172.605H260.722H261.445L261.138 274.398L250.181 251.042L229.96 239.003Z" fill="black" stroke="#6D37FF" stroke-width="0.919642"/>
<path d="M252.385 210.629L252.382 210.625L248.808 205.968L247.944 195.825L247.922 195.574L247.699 195.457C246.223 194.682 244.552 194.334 242.881 194.453L241.907 194.522C241.907 194.522 241.906 194.522 241.906 194.522C240.578 194.607 239.25 194.352 238.055 193.784C236.86 193.216 235.839 192.353 235.094 191.284L234.455 190.368L234.263 191.468C234.154 192.093 234.098 192.726 234.095 193.36V193.362V194.637C234.095 200.205 229.228 204.774 223.156 204.774H223.079L223.006 204.799C222.032 205.135 221.113 205.608 220.28 206.204L220.087 206.342V206.578V209.422C220.048 213.422 219.135 217.368 217.408 220.998C215.68 224.629 213.177 227.86 210.065 230.476L210.065 230.476L210.061 230.48L209.936 230.588C209.935 230.589 209.934 230.589 209.933 230.59C209.541 230.918 209.246 231.342 209.077 231.82C207.529 236.013 204.459 239.513 200.442 241.657L199.392 242.217L200.546 242.508L225.067 248.7C225.941 248.921 226.856 248.937 227.738 248.747C228.62 248.557 229.444 248.166 230.142 247.606C230.841 247.045 231.395 246.331 231.757 245.52C232.119 244.709 232.28 243.825 232.225 242.942L231.756 235.362L231.757 235.362L231.756 235.351C231.666 234.305 231.841 233.252 232.265 232.286C232.665 231.376 233.275 230.568 234.049 229.924L240.537 230.706L240.538 230.706C243.196 231.025 245.559 230.492 247.212 229.165C248.873 227.83 249.75 225.744 249.527 223.106L249.528 223.057L249.532 222.85C249.535 222.671 249.54 222.413 249.546 222.1C249.556 221.473 249.569 220.622 249.577 219.727C249.593 218.104 249.595 216.299 249.541 215.442L251.387 214.574L251.389 214.573C251.743 214.405 252.057 214.162 252.306 213.862C252.556 213.561 252.735 213.21 252.831 212.833C252.926 212.456 252.936 212.063 252.859 211.681C252.781 211.3 252.619 210.941 252.385 210.629Z" fill="#101010" stroke="#6D37FF" stroke-width="0.919642"/>
</svg>
