<svg width="20" height="76" viewBox="0 0 20 76" fill="none" xmlns="http://www.w3.org/2000/svg">
<path fill-rule="evenodd" clip-rule="evenodd" d="M2.08512 65.1494C2.05795 65.5088 2.15929 65.9908 2.57286 66.6272C4.01526 68.847 6.36075 70.3617 8.83237 71.3464C10.8578 72.1533 12.9039 72.5779 14.4597 72.749C14.5026 69.6689 14.4813 63.7548 14.4608 60.4444C12.7556 60.6516 9.41538 61.092 6.55479 62.0019C4.76754 62.5703 3.35814 63.2668 2.62119 64.0617C2.27377 64.4364 2.112 64.7939 2.08512 65.1494ZM14.6252 58.3862C14.6166 58.3872 14.608 58.3882 14.5993 58.3893C13.0963 58.5678 9.21003 59.0293 5.90762 60.0796C4.05611 60.6685 2.19729 61.4976 1.07531 62.7078C0.493265 63.3356 0.0778962 64.1005 0.00979839 65.0012C-0.0580098 65.8981 0.227839 66.806 0.813471 67.7073C2.56852 70.4081 5.34116 72.1414 8.04318 73.2178C10.4786 74.1881 12.9344 74.6564 14.7238 74.8071C14.7957 74.9764 14.8844 75.1336 14.9927 75.2764C15.2275 75.5859 15.5435 75.8111 15.9201 75.9224C16.2812 76.0292 16.6325 76.0123 16.9285 75.9524C17.4954 75.8376 18.0337 75.5288 18.4601 75.2349C18.9063 74.9272 19.3298 74.5648 19.6758 74.2456C20.0926 73.8611 20.1098 73.221 19.7142 72.8159C19.3186 72.4108 18.66 72.3941 18.2433 72.7786C17.9343 73.0636 17.5905 73.3546 17.2562 73.5852C16.98 73.7756 16.7637 73.8869 16.6145 73.9404C16.6076 73.9161 16.6004 73.8881 16.5934 73.8558C16.5563 73.685 16.5301 73.4327 16.536 73.0749C16.5895 69.7981 16.5582 62.7118 16.5361 59.5849L16.5359 59.5598L16.5344 59.5347C16.531 59.4761 16.5305 59.4214 16.5322 59.3713C16.5554 59.3849 16.5801 59.3998 16.6064 59.4164C16.9619 59.6405 17.4775 60.0747 18.1812 60.8457C18.5625 61.2635 19.2201 61.3017 19.65 60.9311C20.0799 60.5605 20.1192 59.9213 19.7379 59.5035C18.976 58.6688 18.3176 58.0843 17.7385 57.7194C17.1854 57.3708 16.5354 57.1168 15.8718 57.2642C15.1531 57.4237 14.788 57.9602 14.6252 58.3862ZM7.62432 35.5781C11.3683 37.0685 16.0413 38.6128 19.205 39.5796C19.7531 39.7471 20.0578 40.3148 19.8855 40.8476C19.7131 41.3804 19.129 41.6765 18.5808 41.509C15.3882 40.5334 10.6544 38.9699 6.83561 37.4497C4.93453 36.6929 3.21598 35.9296 2.02364 35.2405C1.43986 34.9031 0.905916 34.5408 0.545335 34.1605C0.366063 33.9715 0.16717 33.7138 0.0661571 33.3918C-0.0478918 33.0282 -0.0250643 32.6078 0.222513 32.2308C0.470417 31.8533 0.835041 31.575 1.1899 31.3668C1.55471 31.1528 1.97957 30.9724 2.42735 30.8182C2.97081 30.6309 3.5859 30.4695 4.23617 30.3318C3.30325 30.044 2.41867 29.6878 1.71288 29.2365C0.859225 28.6908 0.0590936 27.8633 0.0590936 26.6889C0.0590936 25.9661 0.459949 25.3951 0.903969 24.9848C1.35092 24.5719 1.94549 24.2212 2.59379 23.9173C3.89679 23.3067 5.6481 22.7802 7.52447 22.3334C11.2934 21.436 15.7921 20.8083 18.7844 20.5035C19.3559 20.4452 19.8678 20.8483 19.9277 21.4038C19.9876 21.9593 19.5729 22.4568 19.0014 22.515C16.0625 22.8144 11.6647 23.4299 8.01963 24.2979C6.18907 24.7338 4.60412 25.2206 3.49761 25.7391C2.94115 25.9999 2.56264 26.2429 2.33771 26.4507C2.18209 26.5945 2.14682 26.676 2.1401 26.6975C2.14358 26.8708 2.25349 27.1613 2.85643 27.5468C3.45672 27.9305 4.35086 28.274 5.44014 28.5703C7.60607 29.1594 10.228 29.4821 12.0269 29.6995C12.5836 29.7668 12.9852 30.2509 12.9347 30.794C12.8843 31.3371 12.3999 31.7435 11.8398 31.7127C10.3543 31.6312 7.98633 31.7541 5.86926 32.0896C4.8118 32.2572 3.85582 32.4719 3.12251 32.7245C2.81428 32.8307 2.56357 32.9374 2.36941 33.0404C2.54385 33.1699 2.78024 33.3246 3.08722 33.5021C4.14229 34.1119 5.74405 34.8296 7.62432 35.5781ZM2.13871 26.7033C2.13863 26.7033 2.13878 26.7022 2.13938 26.7C2.13909 26.7022 2.13879 26.7033 2.13871 26.7033ZM0.0912537 17.2343C0.215439 16.689 0.770931 16.3448 1.33198 16.4655C4.05432 17.0512 8.62326 17.4986 12.3454 17.1222C14.222 16.9325 15.7531 16.5449 16.7263 15.9581C17.1999 15.6726 17.4962 15.3669 17.6606 15.056C17.8186 14.7572 17.8931 14.3825 17.8016 13.8766C17.6315 12.937 17.0448 12.0627 16.0613 11.2508C15.0746 10.4361 13.7428 9.73172 12.2167 9.14222C9.17434 7.96705 5.55057 7.3209 2.89047 7.09554C2.20903 7.07209 1.58334 7.03892 1.03492 7.00183C0.473828 6.9639 0.0453301 6.49944 0.067472 5.95319C0.0896139 5.40694 0.554379 4.97668 1.1168 4.98177C1.67525 4.98682 2.317 5.01793 3.01638 5.07603C5.83409 5.17041 9.56516 5.08866 12.6221 4.42198C14.159 4.0868 15.4473 3.61982 16.3562 3.01014C17.2433 2.4151 17.709 1.7311 17.7907 0.913626C17.8462 0.357726 18.3549 -0.0491662 18.9268 0.00480541C19.4988 0.0587718 19.9174 0.553173 19.8619 1.10907C19.7055 2.67499 18.7809 3.8412 17.5382 4.67475C16.3174 5.49367 14.7366 6.03368 13.0777 6.39546C12.529 6.51511 11.9633 6.61703 11.3881 6.70336C11.9301 6.87533 12.4646 7.06156 12.9852 7.26266C14.6321 7.8988 16.1882 8.70188 17.4085 9.70929C18.6321 10.7195 19.5715 11.9818 19.851 13.5262C20.0126 14.4187 19.8988 15.2479 19.5114 15.9805C19.1306 16.7008 18.5246 17.254 17.8233 17.6768C16.4469 18.5067 14.5383 18.934 12.5607 19.1339C8.57456 19.537 3.77766 19.0632 0.882268 18.4403C0.321218 18.3196 -0.0329312 17.7796 0.0912537 17.2343ZM0.066667 41.4511C0.066667 40.8925 0.532496 40.4398 1.10713 40.4398C5.73383 40.4398 14.8308 42.9799 19.8323 53.1884C20.0793 53.6926 19.859 54.2961 19.3402 54.5362C18.8214 54.7763 18.2006 54.5622 17.9535 54.0579C16.8659 51.8379 15.5719 50.019 14.1774 48.5357C13.1059 51.9972 10.9441 54.1295 8.5533 55.3921C5.91738 56.7841 3.05736 57.0946 1.17374 57.0946C0.599106 57.0946 0.133277 56.6418 0.133277 56.0833C0.133277 55.5248 0.599106 55.072 1.17374 55.072C2.86503 55.072 5.34074 54.7868 7.55983 53.6149C9.71652 52.476 11.6833 50.4765 12.4581 46.909C8.34615 43.4555 3.77186 42.4623 1.10713 42.4623C0.532496 42.4623 0.066667 42.0096 0.066667 41.4511Z" fill="#EAEAEA"/>
</svg>
