<svg width="45" height="41" viewBox="0 0 45 41" fill="none" xmlns="http://www.w3.org/2000/svg">
<path d="M34.5698 4.02282L14.4977 31.8181L16.6776 37.2536L27.0627 22.8725L30.9499 25.6796L34.0044 21.4499L30.1172 18.6428L40.2405 4.62432L34.5698 4.02282Z" fill="black"/>
<path fill-rule="evenodd" clip-rule="evenodd" d="M13.045 28.8386L0.277741 0.812902C0.104668 0.432983 0.411837 0.00938986 0.826727 0.0558376L31.3637 3.47445C31.7727 3.52023 31.9806 3.98976 31.7397 4.32337L28.897 8.25988C28.7856 8.41417 28.6009 8.49805 28.4114 8.48041L18.258 7.53535C18.0685 7.51771 17.8838 7.60159 17.7724 7.75588L12.8381 14.5887C12.724 14.7468 12.7043 14.9542 12.7868 15.1308L17.0302 24.2216C17.1127 24.3983 17.093 24.6057 16.9789 24.7637L13.97 28.9304C13.7285 29.2648 13.216 29.2139 13.045 28.8386ZM10.8929 10.878L13.5809 7.30054C13.8246 6.97622 13.635 6.50917 13.2342 6.44653L8.45361 5.69941C8.02516 5.63245 7.69784 6.07429 7.88673 6.46465L9.97927 10.7893C10.1546 11.1515 10.6512 11.1998 10.8929 10.878Z" fill="black"/>
</svg>
