<svg width="38" height="25" viewBox="0 0 38 25" fill="none" xmlns="http://www.w3.org/2000/svg">
<path d="M27.2998 5.39613C27.1035 5.39613 26.9167 5.27087 26.9167 5.08785V0.452399C26.9167 0.269382 26.8106 0.120117 26.6135 0.120117H11.3857C11.1886 0.120117 11.0833 0.269382 11.0833 0.452399V5.08785C11.0833 5.27087 10.8704 5.37063 10.6725 5.37063H0.355458C0.160708 5.37063 0 5.5709 0 5.75166V10.9047C0 11.0862 0.160708 11.3712 0.355458 11.3712H16.9694C17.1665 11.3712 17.4167 11.0862 17.4167 10.9047V9.80581C17.4167 9.62279 17.4895 9.12099 17.6858 9.12099H20.315C20.5113 9.12099 20.5833 9.62279 20.5833 9.80581V10.9047C20.5833 11.0862 20.8335 11.3712 21.029 11.3712H37.6422C37.8401 11.3712 38 11.0862 38 10.9047V5.75166C38 5.57015 37.8401 5.37063 37.643 5.37063H27.3268L27.2998 5.39613ZM13.532 5.37063C13.3356 5.37063 13.4583 5.27087 13.4583 5.0886V2.45359C13.4583 2.26983 13.3356 2.37034 13.532 2.37034H24.468C24.6644 2.37034 24.5417 2.26983 24.5417 2.45359V5.0886C24.5417 5.27087 24.6644 5.37063 24.468 5.37063H13.532ZM20.6269 16.4057C20.6269 16.5872 20.5113 16.6217 20.315 16.6217H17.6858C17.4895 16.6217 17.4167 16.702 17.4167 16.5205V12.8166C17.4167 12.6351 17.1665 12.1213 16.9702 12.1213H0.355458C0.160708 12.1213 0 12.6351 0 12.8166V23.7894C0.00124684 23.878 0.0392215 23.9626 0.105726 24.0249C0.17223 24.0872 0.261929 24.1223 0.355458 24.1224H37.643C37.7367 24.1228 37.8268 24.0882 37.8937 24.0259C37.9605 23.9637 37.9987 23.879 38 23.7902V12.8166C38 12.6351 37.8401 12.1213 37.643 12.1213H21.029C20.8335 12.1213 20.5833 12.6351 20.5833 12.8166V16.5205L20.6269 16.4057Z" fill="black"/>
</svg>
