<svg width="27" height="28" viewBox="0 0 27 28" fill="none" xmlns="http://www.w3.org/2000/svg">
<path d="M0.34464 8.75073C7.83321 4.0226 16.4253 1.32935 25.2726 0.936849C25.4295 0.930236 25.5861 0.956277 25.7325 1.01333C25.8789 1.07037 26.0118 1.15719 26.1229 1.26827C26.2339 1.37936 26.3207 1.51229 26.3778 1.65866C26.4348 1.80503 26.4609 1.96165 26.4542 2.11861C26.4402 2.46572 26.4262 2.75664 26.4121 2.98938C25.8852 11.535 23.2125 19.8099 18.6411 27.049C16.0411 25.3536 13.5384 23.4445 11.16 21.3208L4.87362 23.4164C4.74872 23.4579 4.61475 23.4639 4.48667 23.4336C4.3586 23.4033 4.24148 23.3379 4.14842 23.2448C4.05536 23.1518 3.99002 23.0346 3.95972 22.9066C3.92942 22.7785 3.93535 22.6445 3.97685 22.5196L6.07232 16.2325C3.97742 13.8864 2.06274 11.3854 0.34464 8.75073ZM12.5563 14.8361C13.3545 15.6343 14.4369 16.0827 15.5656 16.0827C16.6943 16.0827 17.7768 15.6343 18.5749 14.8361C19.373 14.0379 19.8214 12.9553 19.8214 11.8265C19.8214 10.6977 19.373 9.61513 18.5749 8.81694C17.7768 8.01875 16.6943 7.57033 15.5656 7.57033C14.4369 7.57033 13.3545 8.01875 12.5563 8.81694C11.7582 9.61513 11.3098 10.6977 11.3098 11.8265C11.3098 12.9553 11.7582 14.0379 12.5563 14.8361Z" fill="black"/>
</svg>
