<svg width="59" height="40" viewBox="0 0 59 40" fill="none" xmlns="http://www.w3.org/2000/svg">
<path d="M19.8661 10.6451L19.9913 9.40558L18.934 8.74671C17.6662 7.95677 16.1958 7.51724 14.625 7.51724C12.3789 7.51724 10.2408 8.4446 8.6765 10.0692C7.1147 11.6912 6.25 13.8755 6.25 16.1379C6.25 18.4004 7.1147 20.5847 8.6765 22.2067C9.70101 23.2707 10.9716 24.0356 12.3576 24.4368C9.74817 24.8895 7.38694 25.7511 5.57869 26.9566C3.61712 28.2644 2 30.2101 2 32.6897V36V38H4H11.4375H13.4375V36V32.1379C13.4375 30.3045 14.056 28.6912 14.9911 27.5719L17.923 24.0625C19.725 23.2635 21.1854 21.8344 22.0653 20.08L22.6186 18.9768L21.8806 17.9875C20.3513 15.9377 19.5978 13.302 19.8661 10.6451ZM37.1193 17.9877L36.3815 18.9769L36.9347 20.08C37.8146 21.8344 39.275 23.2635 41.077 24.0625L44.0089 27.5719C44.944 28.6912 45.5625 30.3045 45.5625 32.1379V36V38H47.5625H55H57V36V32.6897C57 30.2101 55.3829 28.2644 53.4213 26.9566C51.6131 25.7511 49.2518 24.8895 46.6424 24.4368C48.0284 24.0356 49.299 23.2707 50.3235 22.2067C51.8853 20.5847 52.75 18.4004 52.75 16.1379C52.75 13.8755 51.8853 11.6912 50.3235 10.0692C48.7592 8.4446 46.6211 7.51724 44.375 7.51724C42.8042 7.51724 41.3337 7.95677 40.066 8.74671L39.0103 9.4046L39.1336 10.6425C39.3963 13.2786 38.6692 15.9098 37.1193 17.9877ZM43.3125 38H45.3125V36V32.1379C45.3125 28.8737 43.1142 26.2608 40.2951 24.5714C37.4356 22.8577 33.6143 21.8621 29.5 21.8621C25.3857 21.8621 21.5644 22.8577 18.7049 24.5714C15.8858 26.2608 13.6875 28.8737 13.6875 32.1379V36V38H15.6875H43.3125ZM36.1998 4.87512C34.4363 3.04361 32.0279 2 29.5 2C26.9721 2 24.5637 3.04361 22.8002 4.87512C21.0391 6.70405 20.0625 9.16903 20.0625 11.7241C20.0625 14.2793 21.0391 16.7442 22.8002 18.5732C24.5637 20.4047 26.9721 21.4483 29.5 21.4483C32.0279 21.4483 34.4363 20.4047 36.1998 18.5732C37.9609 16.7442 38.9375 14.2793 38.9375 11.7241C38.9375 9.16903 37.9609 6.70405 36.1998 4.87512Z" stroke="#EAEAEA" stroke-width="4"/>
</svg>
