<svg width="151" height="128" viewBox="0 0 151 128" fill="none" xmlns="http://www.w3.org/2000/svg">
<path d="M105.85 109.973L17.3137 46.1641L0 53.0939L45.8082 86.1081L36.8667 98.4653L50.3397 108.175L59.2812 95.8181L103.934 128L105.85 109.973Z" fill="#EAEAEA"/>
<path fill-rule="evenodd" clip-rule="evenodd" d="M24.8371 42.4401L118.093 0.0416197C118.414 -0.104709 118.773 0.154994 118.734 0.50577L107.358 101.915C107.32 102.261 106.922 102.437 106.639 102.233L91.7727 91.5189C91.642 91.4247 91.5709 91.2686 91.5859 91.1084L94.7293 57.4038C94.7442 57.2435 94.6732 57.0874 94.5425 56.9932L71.597 40.4563C71.4631 40.3598 71.2874 40.3432 71.1377 40.4129L40.8427 54.5259C40.6931 54.5956 40.5173 54.579 40.3835 54.4825L24.7593 43.2221C24.4761 43.018 24.5192 42.5846 24.8371 42.4401ZM82.3672 33.4686L97.0843 44.5046C97.359 44.7106 97.7547 44.5503 97.8078 44.2114L100.881 24.5843C100.938 24.222 100.564 23.9453 100.233 24.105L82.4424 32.6962C82.1355 32.8444 82.0946 33.2643 82.3672 33.4686Z" fill="#EAEAEA"/>
</svg>
