<svg width="51" height="39" viewBox="0 0 51 39" fill="none" xmlns="http://www.w3.org/2000/svg">
<path d="M3.99964 33.495L2.39195 34.6847L2.39865 34.6937L2.40545 34.7027L3.99964 33.495ZM3.99964 5.458L2.39964 4.258L2.3977 4.26059L3.99964 5.458ZM25.8356 5.458L24.2279 6.6477L24.2337 6.65541L25.8356 5.458ZM25.8356 33.495L27.4376 34.6924L27.4433 34.6847L25.8356 33.495ZM9.29964 28.513L7.59236 29.5547L7.59633 29.5612L7.60036 29.5677L9.29964 28.513ZM20.5356 28.46L18.8413 27.3974L18.8347 27.4078L18.8284 27.4183L20.5356 28.46ZM20.5356 10.387L18.8284 11.4287L18.8347 11.4392L18.8413 11.4496L20.5356 10.387ZM14.9176 36.742C10.8751 36.742 7.84225 35.2552 5.59382 32.2873L2.40545 34.7027C5.45703 38.7308 9.7028 40.742 14.9176 40.742V36.742ZM5.60732 32.3053C3.31922 29.2133 2.07764 24.9905 2.07764 19.45H-1.92236C-1.92236 25.5695 -0.549282 30.71 2.39195 34.6847L5.60732 32.3053ZM2.07764 19.45C2.07764 13.9082 3.31973 9.70815 5.60158 6.65541L2.3977 4.26059C-0.549787 8.20384 -1.92236 13.3318 -1.92236 19.45H2.07764ZM5.59964 6.658C7.85121 3.6559 10.8831 2.158 14.9176 2.158V-1.842C9.6948 -1.842 5.44806 0.193432 2.39964 4.258L5.59964 6.658ZM14.9176 2.158C18.9928 2.158 22.0166 3.65934 24.228 6.64768L27.4433 4.26831C24.4254 0.189994 20.1704 -1.842 14.9176 -1.842V2.158ZM24.2337 6.65541C26.5155 9.70815 27.7576 13.9082 27.7576 19.45H31.7576C31.7576 13.3318 30.3851 8.20384 27.4376 4.26059L24.2337 6.65541ZM27.7576 19.45C27.7576 24.9905 26.5161 29.2133 24.228 32.3053L27.4433 34.6847C30.3846 30.71 31.7576 25.5695 31.7576 19.45H27.7576ZM24.2337 32.2976C22.0255 35.2518 19.0009 36.742 14.9176 36.742V40.742C20.1624 40.742 24.4164 38.7342 27.4376 34.6924L24.2337 32.2976ZM7.60036 29.5677C9.24835 32.2228 11.774 33.587 14.9176 33.587V29.587C13.1146 29.587 11.8949 28.9018 10.9989 27.4583L7.60036 29.5677ZM14.9176 33.587C18.0772 33.587 20.6021 32.1909 22.2429 29.5017L18.8284 27.4183C17.9252 28.8985 16.7047 29.587 14.9176 29.587V33.587ZM22.23 29.5226C23.8228 26.9827 24.4966 23.5447 24.4966 19.45H20.4966C20.4966 23.1993 19.8631 25.768 18.8413 27.3974L22.23 29.5226ZM24.4966 19.45C24.4966 15.3241 23.8242 11.8665 22.23 9.32442L18.8413 11.4496C19.8617 13.0768 20.4966 15.6612 20.4966 19.45H24.4966ZM22.2429 9.34527C20.6021 6.65615 18.0772 5.26 14.9176 5.26V9.26C16.7047 9.26 17.9252 9.94852 18.8284 11.4287L22.2429 9.34527ZM14.9176 5.26C11.758 5.26 9.23318 6.65615 7.59236 9.34527L11.0069 11.4287C11.9101 9.94852 13.1306 9.26 14.9176 9.26V5.26ZM7.59236 9.34527C6.04447 11.8821 5.39164 15.3308 5.39164 19.45H9.39164C9.39164 15.6546 10.0108 13.0612 11.0069 11.4287L7.59236 9.34527ZM5.39164 19.45C5.39164 23.5692 6.04447 27.0179 7.59236 29.5547L11.0069 27.4713C10.0108 25.8388 9.39164 23.2454 9.39164 19.45H5.39164ZM44.6163 0.899998V-1.1H44.2734L43.9501 -0.985794L44.6163 0.899998ZM50.9763 0.899998H52.9763V-1.1H50.9763V0.899998ZM50.9763 38V40H52.9763V38H50.9763ZM43.6623 38H41.6623V40H43.6623V38ZM43.6623 8.638H45.6623V6.00031L43.1225 6.71222L43.6623 8.638ZM36.6663 10.599L34.7445 11.1527L35.2942 13.0607L37.2061 12.5248L36.6663 10.599ZM34.8643 4.345L34.1981 2.45921L32.4205 3.08717L32.9425 4.89874L34.8643 4.345ZM44.6163 2.9H50.9763V-1.1H44.6163V2.9ZM48.9763 0.899998V38H52.9763V0.899998H48.9763ZM50.9763 36H43.6623V40H50.9763V36ZM45.6623 38V8.638H41.6623V38H45.6623ZM43.1225 6.71222L36.1265 8.67322L37.2061 12.5248L44.2021 10.5638L43.1225 6.71222ZM38.5881 10.0453L36.7861 3.79125L32.9425 4.89874L34.7445 11.1527L38.5881 10.0453ZM35.5304 6.23079L45.2824 2.78579L43.9501 -0.985794L34.1981 2.45921L35.5304 6.23079Z" fill="#EAEAEA"/>
</svg>
