<svg width="61" height="39" viewBox="0 0 61 39" fill="none" xmlns="http://www.w3.org/2000/svg">
<path d="M4.1178 33.495L2.51012 34.6847L2.51682 34.6937L2.52362 34.7027L4.1178 33.495ZM4.1178 5.458L2.5178 4.258L2.51586 4.26059L4.1178 5.458ZM25.9538 5.458L24.3461 6.6477L24.3519 6.65541L25.9538 5.458ZM25.9538 33.495L27.5558 34.6924L27.5615 34.6847L25.9538 33.495ZM9.4178 28.513L7.71052 29.5547L7.7145 29.5612L7.71852 29.5677L9.4178 28.513ZM20.6538 28.46L18.9594 27.3974L18.9529 27.4078L18.9465 27.4183L20.6538 28.46ZM20.6538 10.387L18.9465 11.4287L18.9529 11.4392L18.9594 11.4496L20.6538 10.387ZM15.0358 36.742C10.9933 36.742 7.96041 35.2552 5.71199 32.2873L2.52362 34.7027C5.57519 38.7308 9.82097 40.742 15.0358 40.742V36.742ZM5.72549 32.3053C3.43739 29.2133 2.1958 24.9905 2.1958 19.45H-1.8042C-1.8042 25.5695 -0.431118 30.71 2.51012 34.6847L5.72549 32.3053ZM2.1958 19.45C2.1958 13.9082 3.43789 9.70815 5.71974 6.65541L2.51586 4.26059C-0.431623 8.20384 -1.8042 13.3318 -1.8042 19.45H2.1958ZM5.7178 6.658C7.96938 3.6559 11.0013 2.158 15.0358 2.158V-1.842C9.81297 -1.842 5.56623 0.193432 2.5178 4.258L5.7178 6.658ZM15.0358 2.158C19.111 2.158 22.1347 3.65934 24.3461 6.64768L27.5615 4.26831C24.5435 0.189994 20.2886 -1.842 15.0358 -1.842V2.158ZM24.3519 6.65541C26.6337 9.70815 27.8758 13.9082 27.8758 19.45H31.8758C31.8758 13.3318 30.5032 8.20384 27.5557 4.26059L24.3519 6.65541ZM27.8758 19.45C27.8758 24.9905 26.6342 29.2133 24.3461 32.3053L27.5615 34.6847C30.5027 30.71 31.8758 25.5695 31.8758 19.45H27.8758ZM24.3519 32.2976C22.1437 35.2518 19.1191 36.742 15.0358 36.742V40.742C20.2805 40.742 24.5346 38.7342 27.5557 34.6924L24.3519 32.2976ZM7.71852 29.5677C9.36651 32.2228 11.8921 33.587 15.0358 33.587V29.587C13.2328 29.587 12.0131 28.9018 11.1171 27.4583L7.71852 29.5677ZM15.0358 33.587C18.1954 33.587 20.7203 32.1909 22.3611 29.5017L18.9465 27.4183C18.0433 28.8985 16.8229 29.587 15.0358 29.587V33.587ZM22.3482 29.5226C23.941 26.9827 24.6148 23.5447 24.6148 19.45H20.6148C20.6148 23.1993 19.9813 25.768 18.9594 27.3974L22.3482 29.5226ZM24.6148 19.45C24.6148 15.3241 23.9424 11.8665 22.3482 9.32442L18.9594 11.4496C19.9799 13.0768 20.6148 15.6612 20.6148 19.45H24.6148ZM22.3611 9.34527C20.7203 6.65615 18.1954 5.26 15.0358 5.26V9.26C16.8229 9.26 18.0433 9.94852 18.9465 11.4287L22.3611 9.34527ZM15.0358 5.26C11.8762 5.26 9.35135 6.65615 7.71052 9.34527L11.1251 11.4287C12.0283 9.94852 13.2487 9.26 15.0358 9.26V5.26ZM7.71052 9.34527C6.16263 11.8821 5.5098 15.3308 5.5098 19.45H9.5098C9.5098 15.6546 10.129 13.0612 11.1251 11.4287L7.71052 9.34527ZM5.5098 19.45C5.5098 23.5692 6.16263 27.0179 7.71052 29.5547L11.1251 27.4713C10.129 25.8388 9.5098 23.2454 9.5098 19.45H5.5098ZM35.9339 38H33.9339V40H35.9339V38ZM35.9339 32.541L34.4995 31.1473L33.9339 31.7294V32.541H35.9339ZM48.6009 19.503L50.0354 20.8967L50.0424 20.8895L50.0492 20.8823L48.6009 19.503ZM51.463 8.585L50.0487 9.99921L50.0626 10.0131L50.0767 10.0267L51.463 8.585ZM41.8169 11.606L40.8055 13.3314L42.7055 14.4452L43.6316 12.4469L41.8169 11.606ZM35.6689 8.002L33.8508 7.16869L33.0973 8.81277L34.6575 9.72739L35.6689 8.002ZM40.7039 2.172L39.6588 0.466794V0.466795L40.7039 2.172ZM56.5509 3.338L55.2277 4.83767L55.234 4.84318L55.2402 4.84864L56.5509 3.338ZM46.799 30.951L45.3847 29.5368L41.9705 32.951H46.799V30.951ZM60.7379 30.951H62.738V28.951H60.7379V30.951ZM60.7379 38V40H62.738V38H60.7379ZM37.9339 38V32.541H33.9339V38H37.9339ZM37.3684 33.9347L50.0354 20.8967L47.1665 18.1093L34.4995 31.1473L37.3684 33.9347ZM50.0492 20.8823C51.5298 19.3278 52.7042 17.8375 53.5174 16.4143C54.3255 15.0003 54.841 13.5404 54.841 12.083H50.841C50.841 12.6043 50.6498 13.3704 50.0445 14.4297C49.4444 15.4798 48.4988 16.7102 47.1527 18.1237L50.0492 20.8823ZM54.841 12.083C54.841 10.1717 54.2151 8.45669 52.8492 7.14333L50.0767 10.0267C50.5482 10.48 50.841 11.0969 50.841 12.083H54.841ZM52.8772 7.17079C51.5683 5.86189 49.8858 5.26 48.018 5.26V9.26C48.9768 9.26 49.591 9.54144 50.0487 9.99921L52.8772 7.17079ZM48.018 5.26C46.257 5.26 44.6316 5.72381 43.2263 6.70869C41.8373 7.68223 40.7832 9.08014 40.0023 10.7651L43.6316 12.4469C44.1934 11.2345 44.8441 10.4594 45.5221 9.9843C46.1838 9.52052 46.9876 9.26 48.018 9.26V5.26ZM42.8284 9.8806L36.6804 6.2766L34.6575 9.72739L40.8055 13.3314L42.8284 9.8806ZM37.4871 8.83531C38.5031 6.61859 39.9271 4.99388 41.7491 3.8772L39.6588 0.466795C37.0994 2.03545 35.1668 4.29741 33.8508 7.16869L37.4871 8.83531ZM41.7491 3.8772C43.6194 2.73085 45.6593 2.158 47.9119 2.158V-1.842C44.9352 -1.842 42.1698 -1.07219 39.6588 0.466794L41.7491 3.8772ZM47.9119 2.158C50.8066 2.158 53.209 3.05646 55.2277 4.83767L57.8742 1.83832C55.0876 -0.620464 51.7306 -1.842 47.9119 -1.842V2.158ZM55.2402 4.84864C57.1488 6.50456 58.1549 8.74998 58.1549 11.818H62.155C62.155 7.74869 60.7585 4.34077 57.8617 1.82735L55.2402 4.84864ZM58.1549 11.818C58.1549 14.9268 56.5168 18.4048 52.6457 22.2758L55.4742 25.1042C59.7298 20.8486 62.155 16.4119 62.155 11.818H58.1549ZM52.6457 22.2758L45.3847 29.5368L48.2132 32.3652L55.4742 25.1042L52.6457 22.2758ZM46.799 32.951H60.7379V28.951H46.799V32.951ZM58.7379 30.951V38H62.738V30.951H58.7379ZM60.7379 36H35.9339V40H60.7379V36Z" fill="#EAEAEA"/>
</svg>
