<svg width="34" height="53" viewBox="0 0 34 53" fill="none" xmlns="http://www.w3.org/2000/svg">
<path d="M15.3425 45.1701C15.3425 47.1443 14.7583 48.7425 13.5898 49.9646C12.408 51.1868 10.9038 51.7978 9.07734 51.7978C7.4523 51.7978 5.98843 51.4016 4.68571 50.6093C3.36957 49.8035 2.3556 48.7156 1.6438 47.3458C0.918579 45.9759 0.555967 44.465 0.555967 42.8131C0.555967 40.8523 1.14689 39.2676 2.32874 38.0589C3.49715 36.8367 4.98789 36.2257 6.80095 36.2257C8.43941 36.2257 9.91672 36.6286 11.2329 37.4344C12.5356 38.2268 13.5496 39.3012 14.2748 40.6576C14.9866 42.014 15.3425 43.5182 15.3425 45.1701ZM11.8574 44.6665C11.8574 43.3638 11.3873 42.2826 10.4472 41.4231C9.5071 40.5502 8.41255 40.1137 7.16356 40.1137C6.53234 40.1137 5.98171 40.248 5.51166 40.5166C5.04161 40.7852 4.679 41.1679 4.42382 41.6648C4.16865 42.1483 4.04107 42.7124 4.04107 43.357C4.04107 44.6329 4.51112 45.714 5.45122 46.6004C6.39133 47.4734 7.48588 47.9098 8.73488 47.9098C9.67498 47.9098 10.4338 47.6144 11.0113 47.0234C11.5753 46.4325 11.8574 45.6469 11.8574 44.6665ZM0.898432 21.0731L0.898432 17.2858L15 17.9708L15 21.6573L6.84123 21.1335L15.0201 26.613L15.0201 27.6605L6.80095 29.8362L15 32.6565L15 36.5445L0.898432 31.5888L0.898432 27.9023L8.55357 26.0288L0.898432 21.0731ZM4.06121 7.32045C4.06121 8.17998 4.28952 8.95221 4.74615 9.63714C5.18934 10.3221 5.77354 10.8526 6.49877 11.2286C7.22399 11.5912 8.01637 11.7725 8.87589 11.7725C9.7757 11.7725 10.4942 11.5039 11.0314 10.9667C11.5686 10.4295 11.8372 9.69086 11.8372 8.75076C11.8372 6.97799 11.1859 5.75585 9.88314 5.08435L9.88314 8.73061L7.50602 8.22698L7.50602 0.551703C10.004 0.914314 11.9379 1.8477 13.3078 3.35187C14.6642 4.85604 15.3425 6.79668 15.3425 9.1738C15.3425 11.054 14.7583 12.5918 13.5898 13.787C12.4214 14.9823 10.9441 15.5799 9.15792 15.5799C7.57317 15.5799 6.12944 15.2039 4.82673 14.4518C3.51058 13.6863 2.46975 12.6388 1.70424 11.3092C0.938722 9.96618 0.555966 8.48216 0.555965 6.85712C0.555965 5.05749 1.1066 3.53989 2.20786 2.30433C3.2957 1.05533 4.5917 0.437547 6.09587 0.450977L6.09587 4.35913C5.47808 4.50686 4.98789 4.84932 4.62527 5.38653C4.24923 5.9103 4.06121 6.55494 4.06121 7.32045ZM33.3425 47.2287C33.3425 48.7463 32.9933 49.9483 32.2949 50.8346C31.5831 51.7076 30.6162 52.1441 29.394 52.1441C29.0851 52.1441 28.7628 52.1105 28.4271 52.0433L28.4271 48.1956C28.5345 48.2225 28.6419 48.2359 28.7494 48.2359C29.1657 48.2359 29.4948 48.1016 29.7365 47.833C29.9648 47.5644 30.079 47.1884 30.079 46.7049C30.079 46.3557 30.0252 46.0334 29.9178 45.7379C29.7969 45.4425 29.6156 45.2007 29.3739 45.0127C29.1321 44.8247 28.8434 44.7307 28.5076 44.7307C28.3062 44.7307 28.1316 44.7911 27.9839 44.912C27.8361 45.0194 27.7086 45.194 27.6011 45.4358C27.4937 45.6775 27.4064 45.9058 27.3392 46.1207C27.2721 46.3221 27.1915 46.6109 27.0975 46.9869C27.0035 47.3093 26.9296 47.5644 26.8759 47.7524C26.8222 47.9405 26.7416 48.1889 26.6341 48.4978C26.5267 48.7933 26.4193 49.035 26.3118 49.223C26.2044 49.4111 26.0634 49.6192 25.8888 49.8475C25.7008 50.0624 25.5127 50.237 25.3247 50.3713C25.1233 50.4922 24.8815 50.5996 24.5995 50.6936C24.304 50.7742 23.9951 50.8145 23.6728 50.8145C22.5581 50.8145 21.618 50.5526 20.8525 50.0288C20.0736 49.5051 19.4961 48.7933 19.12 47.8935C18.744 46.9802 18.556 45.9192 18.556 44.7105C18.556 43.7704 18.697 42.9579 18.979 42.273C19.261 41.588 19.6841 41.0643 20.2482 40.7017C20.7988 40.3256 21.4636 40.1376 22.2425 40.1376C22.5648 40.1376 22.8737 40.1645 23.1692 40.2182L23.1692 43.945C23.0618 43.9316 22.9677 43.9249 22.8872 43.9249C22.5245 43.9249 22.2425 44.0457 22.0411 44.2875C21.8262 44.5158 21.7187 44.8448 21.7187 45.2746C21.7187 45.7715 21.8329 46.1744 22.0612 46.4833C22.2761 46.7922 22.5917 46.9466 23.008 46.9466C23.1826 46.9466 23.3371 46.8996 23.4714 46.8056C23.6057 46.6982 23.7265 46.5303 23.834 46.302C23.9414 46.0603 24.0287 45.8454 24.0959 45.6574C24.163 45.4559 24.2503 45.1672 24.3578 44.7911C24.4249 44.5359 24.4786 44.3345 24.5189 44.1868C24.5592 44.039 24.6264 43.8376 24.7204 43.5824C24.8009 43.3272 24.8748 43.1258 24.942 42.9781C25.0091 42.8169 25.1031 42.6289 25.224 42.414C25.3449 42.1857 25.4657 42.0044 25.5866 41.8701C25.7075 41.7358 25.8552 41.5948 26.0298 41.447C26.191 41.2993 26.3655 41.1851 26.5536 41.1046C26.7282 41.0106 26.9363 40.9367 27.1781 40.883C27.4198 40.8292 27.675 40.8024 27.9436 40.8024C29.6492 40.8024 30.9788 41.3933 31.9323 42.5752C32.8724 43.757 33.3425 45.3082 33.3425 47.2287ZM18.8984 24.9683L18.8984 21.1811L33 21.866L33 25.5525L24.8412 25.0288L33.0201 30.5082L33.0201 31.5558L24.8009 33.7315L33 36.5518L33 40.4398L18.8984 35.4841L18.8984 31.7975L26.5536 29.924L18.8984 24.9683ZM18.8984 5.21671L18.8984 1.42943L33 2.11436L33 5.80091L24.8412 5.27714L33.0201 10.7566L33.0201 11.8042L24.8009 13.9798L33 16.8001L33 20.6881L18.8984 15.7324L18.8984 12.0459L26.5536 10.1724L18.8984 5.21671Z" fill="#EAEAEA"/>
</svg>
