<svg width="43" height="78" viewBox="0 0 43 78" fill="none" xmlns="http://www.w3.org/2000/svg">
<path fill-rule="evenodd" clip-rule="evenodd" d="M1.70725 29.8686L1.70725 64.6823C1.70725 70.5855 6.54278 75.371 12.5077 75.371C18.4726 75.371 23.3081 70.5855 23.3081 64.6823L23.3081 29.8686C23.3081 23.9655 18.4726 19.18 12.5077 19.18C6.54277 19.18 1.70725 23.9654 1.70725 29.8686ZM-5.41069e-07 64.6823C-2.42245e-07 71.5186 5.59989 77.0605 12.5077 77.0605C19.4155 77.0605 25.0154 71.5186 25.0154 64.6823L25.0154 29.8686C25.0154 23.0323 19.4155 17.4904 12.5077 17.4904C5.59989 17.4904 -2.36165e-06 23.0323 -2.06283e-06 29.8686L-5.41069e-07 64.6823Z" fill="#EAEAEA"/>
<path d="M17.7104 64.046L6.53423 62.6714L6.53423 60.5225L17.7104 61.8971L17.7104 64.046ZM15.3315 69.8291L13.2719 69.8291L13.2719 59.369L15.3315 59.369L15.3315 69.8291ZM17.7104 68.1384L6.53423 66.7637L6.53423 64.6148L17.7104 65.9895L17.7104 68.1384ZM10.9728 69.3077L8.91316 69.3077L8.91316 58.8318L10.9728 58.8318L10.9728 69.3077Z" fill="#EAEAEA"/>
<path d="M17.7104 57.4497L6.53423 57.4497L6.53423 52.3935C6.53423 51.3822 6.69921 50.5132 7.02917 49.7864C7.35914 49.049 7.83812 48.4802 8.46611 48.0799C9.08347 47.6796 9.8179 47.4795 10.6694 47.4795C11.5103 47.4795 12.2394 47.6796 12.8568 48.0799C13.4635 48.4802 13.9318 49.049 14.2618 49.7864C14.5811 50.5132 14.7408 51.3822 14.7408 52.3935L14.7408 55.7116L13.4156 54.3212L17.7104 54.3212L17.7104 57.4497ZM17.7104 50.608L13.6391 53.3573L13.6391 50.0234L17.7104 47.2582L17.7104 50.608ZM13.7509 54.3212L12.298 55.7116L12.298 52.5831C12.298 51.93 12.1543 51.4454 11.8669 51.1294C11.5795 50.8029 11.1803 50.6396 10.6694 50.6396C10.1479 50.6396 9.7434 50.8029 9.45601 51.1294C9.16862 51.4454 9.02492 51.93 9.02492 52.5831L9.02492 55.7116L7.57202 54.3212L13.7509 54.3212Z" fill="#EAEAEA"/>
<path d="M10.861 42.8777L10.861 37.7425L13.224 37.7425L13.224 42.8777L10.861 42.8777ZM15.2676 42.6565L15.2676 36.8735L17.7104 36.8735L17.7104 45.7535L6.53423 45.7535L6.53423 37.0789L8.97702 37.0789L8.97703 42.6565L15.2676 42.6565Z" fill="#EAEAEA"/>
<path d="M17.934 29.6229C17.934 30.4972 17.7956 31.3083 17.5188 32.0562C17.2315 32.7936 16.827 33.4362 16.3054 33.9839C15.7839 34.5211 15.1718 34.9425 14.4693 35.248C13.7562 35.5535 12.9738 35.7062 12.1223 35.7062C11.2708 35.7062 10.4938 35.5535 9.79129 35.248C9.07814 34.9425 8.46079 34.5211 7.93923 33.9839C7.41768 33.4362 7.01853 32.7936 6.74178 32.0562C6.4544 31.3083 6.3107 30.4972 6.3107 29.6229C6.3107 28.6011 6.49165 27.69 6.85355 26.8894C7.21544 26.0783 7.737 25.4041 8.41821 24.8669L10.2383 26.8578C9.81258 27.2159 9.48794 27.611 9.26441 28.0428C9.04089 28.4642 8.92913 28.9382 8.92913 29.4649C8.92913 29.9179 9.00364 30.334 9.15265 30.7132C9.30167 31.0924 9.51987 31.4189 9.80726 31.6928C10.084 31.9562 10.4193 32.1668 10.8131 32.3248C11.2069 32.4723 11.6433 32.5461 12.1223 32.5461C12.6013 32.5461 13.0377 32.4723 13.4315 32.3248C13.8254 32.1668 14.166 31.9562 14.4534 31.6928C14.7301 31.4189 14.943 31.0924 15.092 30.7132C15.241 30.334 15.3155 29.9179 15.3155 29.4649C15.3155 28.9382 15.2038 28.4642 14.9802 28.0428C14.7567 27.611 14.4321 27.2159 14.0063 26.8578L15.8264 24.8669C16.497 25.4041 17.0186 26.0783 17.3911 26.8894C17.753 27.69 17.934 28.6011 17.934 29.6229Z" fill="#EAEAEA"/>
<path d="M42.4815 71.5513L31.3053 66.6689L31.3053 63.5877L42.4815 58.6895L42.4815 61.9445L32.854 65.7682L32.854 64.5358L42.4815 68.3596L42.4815 71.5513ZM40.3102 68.881L37.9791 68.0751L37.9791 62.6713L40.3102 61.8655L40.3102 68.881Z" fill="#EAEAEA"/>
<path d="M42.7051 52.4266C42.7051 53.3009 42.5667 54.112 42.2899 54.8599C42.0026 55.6078 41.5981 56.2557 41.0765 56.8034C40.555 57.3407 39.9429 57.762 39.2404 58.0675C38.5273 58.373 37.745 58.5257 36.8934 58.5257C36.0419 58.5257 35.2649 58.373 34.5624 58.0675C33.8492 57.762 33.2319 57.3354 32.7103 56.7876C32.1888 56.2399 31.7896 55.592 31.5129 54.8441C31.2255 54.0857 31.0818 53.2588 31.0818 52.3634C31.0818 51.3206 31.2574 50.3883 31.6087 49.5667C31.9599 48.7451 32.4655 48.0656 33.1255 47.5284L34.9456 49.5193C34.5305 49.8985 34.2218 50.3093 34.0196 50.7518C33.8067 51.1836 33.7002 51.6682 33.7002 52.2054C33.7002 52.6794 33.7747 53.1113 33.9238 53.5011C34.0728 53.8908 34.291 54.2227 34.5784 54.4965C34.8551 54.7704 35.1904 54.9864 35.5842 55.1444C35.9674 55.2918 36.4038 55.3656 36.8934 55.3656C37.3618 55.3656 37.7928 55.2918 38.1867 55.1444C38.5805 54.9864 38.9211 54.7704 39.2085 54.4965C39.4852 54.2227 39.7034 53.8961 39.8631 53.5169C40.0121 53.1271 40.0866 52.7005 40.0866 52.237C40.0866 51.7735 40.0121 51.3206 39.8631 50.8782C39.7034 50.4357 39.4373 49.9881 39.0648 49.5351L41.2841 47.7812C41.7418 48.4133 42.093 49.1454 42.3378 49.9775C42.5827 50.8097 42.7051 51.6261 42.7051 52.4266ZM40.869 50.5463L36.6539 50.5463L36.6539 47.7812L41.2841 47.7812L40.869 50.5463Z" fill="#EAEAEA"/>
<path d="M35.6321 42.922L35.6321 37.7868L37.9951 37.7868L37.9951 42.922L35.6321 42.922ZM40.0387 42.7008L40.0387 36.9177L42.4815 36.9177L42.4815 45.7977L31.3053 45.7977L31.3053 37.1231L33.7481 37.1231L33.7481 42.7008L40.0387 42.7008Z" fill="#EAEAEA"/>
<path d="M42.4815 35.1816L31.3053 35.1816L31.3053 32.6061L38.7455 26.507L38.7455 27.7237L31.3053 27.7237L31.3053 24.6584L42.4815 24.6584L42.4815 27.2339L35.0414 33.333L35.0414 32.1163L42.4815 32.1163L42.4815 35.1816Z" fill="#EAEAEA"/>
<path d="M42.7051 16.9371C42.7051 17.8114 42.5667 18.6225 42.2899 19.3704C42.0026 20.1078 41.5981 20.7504 41.0765 21.2981C40.555 21.8353 39.9429 22.2567 39.2404 22.5622C38.5273 22.8676 37.745 23.0204 36.8934 23.0204C36.0419 23.0204 35.2649 22.8676 34.5624 22.5622C33.8492 22.2567 33.2319 21.8353 32.7103 21.2981C32.1888 20.7504 31.7896 20.1078 31.5129 19.3704C31.2255 18.6225 31.0818 17.8114 31.0818 16.9371C31.0818 15.9153 31.2628 15.0042 31.6246 14.2036C31.9865 13.3925 32.5081 12.7183 33.1893 12.1811L35.0094 14.172C34.5837 14.5301 34.259 14.9251 34.0355 15.357C33.812 15.7784 33.7002 16.2524 33.7002 16.7791C33.7002 17.2321 33.7747 17.6481 33.9238 18.0274C34.0728 18.4066 34.291 18.7331 34.5784 19.007C34.8551 19.2703 35.1904 19.481 35.5842 19.639C35.978 19.7865 36.4145 19.8602 36.8934 19.8602C37.3724 19.8602 37.8088 19.7865 38.2026 19.639C38.5965 19.481 38.9371 19.2703 39.2245 19.007C39.5012 18.7331 39.7141 18.4066 39.8631 18.0274C40.0121 17.6481 40.0866 17.2321 40.0866 16.7791C40.0866 16.2524 39.9749 15.7784 39.7513 15.357C39.5278 14.9251 39.2032 14.5301 38.7774 14.172L40.5975 12.1811C41.2681 12.7183 41.7897 13.3925 42.1622 14.2036C42.5241 15.0042 42.7051 15.9153 42.7051 16.9371Z" fill="#EAEAEA"/>
<path d="M42.4815 8.03575L37.7556 8.03575L39.6555 7.30892L31.3053 12.2545L31.3053 8.95219L37.3564 5.38123L37.3564 7.29312L31.3053 3.70635L31.3053 0.672622L39.6555 5.60244L37.7556 4.90721L42.4815 4.90721L42.4815 8.03575Z" fill="#EAEAEA"/>
</svg>
