<svg width="49" height="50" viewBox="0 0 49 50" fill="none" xmlns="http://www.w3.org/2000/svg">
<path d="M42.9382 17.0637L46.4163 30.5H40.6218H38.6218V32.5V43H30.4663H28.4663V45V48H9.61658V39.25V38.3582L8.95313 37.7622C6.74068 35.7747 5.03379 33.4639 3.8177 30.8194L3.81711 30.8181C2.60508 28.1873 2 25.4214 2 22.5C2 16.7844 4.00754 11.9857 8.06777 7.98758C12.1292 3.98832 17.0172 2 22.8497 2C27.723 2 31.9851 3.40116 35.7099 6.19496L35.71 6.19504C39.4276 8.98304 41.8189 12.5795 42.9339 17.0468L42.936 17.0553L42.9382 17.0637Z" stroke="#EAEAEA" stroke-width="4"/>
<path fill-rule="evenodd" clip-rule="evenodd" d="M14.4803 20.0167C14.1634 21.32 14.1632 22.6778 14.4798 23.9812L12 25.3822L13.2514 27.4976L14.5028 29.6129L16.9832 28.2141C17.9792 29.1352 19.1829 29.8146 20.4972 30.1974V33H23H25.5028V30.1999C26.8171 29.817 28.0208 29.1377 29.0168 28.2165L31.4972 29.6154L32.7486 27.4988L34 25.3822L31.5197 23.9833C31.8368 22.6793 31.8368 21.3207 31.5197 20.0167L34 18.6154L32.7486 16.4988L31.4972 14.3822L29.0168 15.7835C28.0307 14.8737 26.8344 14.1865 25.5028 13.7977V11H23H20.4972V13.7977C19.1827 14.1812 17.9789 14.8615 16.9832 15.7835L14.5028 14.3822L13.2514 16.5L12 18.6178L14.4803 20.0167ZM22.9999 25.6659C23.5041 25.6839 24.0069 25.6024 24.4781 25.4263C24.9494 25.2502 25.3795 24.983 25.7427 24.6409C26.1059 24.2987 26.3948 23.8885 26.5922 23.4347C26.7895 22.981 26.8912 22.4931 26.8912 22.0001C26.8912 21.5071 26.7895 21.0191 26.5922 20.5654C26.3948 20.1117 26.1059 19.7014 25.7427 19.3593C25.3795 19.0171 24.9494 18.7499 24.4781 18.5738C24.0069 18.3977 23.5041 18.3162 22.9999 18.3342C22.0286 18.3689 21.1089 18.7703 20.4343 19.454C19.7596 20.1377 19.3827 21.0504 19.3827 22.0001C19.3827 22.9498 19.7596 23.8625 20.4343 24.5462C21.1089 25.2298 22.0286 25.6312 22.9999 25.6659Z" fill="#EAEAEA"/>
</svg>
